M48
;DRILL file {KiCad 5.0.0-rc2-dev-unknown-5ef715f~63~ubuntu16.04.1} date Mon May 28 16:08:05 2018
;FORMAT={-:-/ absolute / metric / decimal}
FMAT,2
METRIC,TZ
T1C0.400
T2C1.000
%
G90
G05
M71
T1
X39.37Y-32.766
X39.37Y-71.374
X42.615Y-34.995
X42.729Y-60.395
X42.729Y-69.145
X42.869Y-43.745
X42.869Y-47.695
X42.869Y-56.445
X52.201Y-49.915
X52.832Y-50.546
X54.275Y-41.229
X54.275Y-52.243
X55.372Y-36.83
X58.166Y-44.704
X60.025Y-52.151
X61.957Y-50.565
X91.751Y-55.175
X91.891Y-46.425
X95.25Y-44.45
X95.25Y-57.15
T2
X45.72Y-34.29
X45.72Y-36.83
X48.26Y-55.88
X48.26Y-58.42
X48.26Y-73.66
X50.8Y-73.66
X53.34Y-73.66
X55.88Y-73.66
X58.42Y-73.66
X60.96Y-73.66
X63.5Y-73.66
X66.04Y-73.66
X68.58Y-73.66
X71.12Y-73.66
X73.66Y-73.66
X76.2Y-73.66
X78.74Y-73.66
X81.28Y-73.66
X83.82Y-73.66
X86.36Y-73.66
X88.9Y-73.66
X91.44Y-73.66
X93.98Y-73.66
X96.52Y-73.66
X66.04Y-43.18
X68.58Y-43.18
X71.12Y-43.18
X73.66Y-43.18
X76.2Y-43.18
X78.74Y-43.18
X48.26Y-30.48
X50.8Y-30.48
X53.34Y-30.48
X55.88Y-30.48
X58.42Y-30.48
X60.96Y-30.48
X63.5Y-30.48
X66.04Y-30.48
X68.58Y-30.48
X71.12Y-30.48
X73.66Y-30.48
X76.2Y-30.48
X78.74Y-30.48
X81.28Y-30.48
X83.82Y-30.48
X86.36Y-30.48
X88.9Y-30.48
X91.44Y-30.48
X93.98Y-30.48
X96.52Y-30.48
X66.04Y-58.42
X68.58Y-58.42
X71.12Y-58.42
X73.66Y-58.42
X76.2Y-58.42
X78.74Y-58.42
T0
M30
