G04 #@! TF.GenerationSoftware,KiCad,Pcbnew,5.0.0-rc2-dev-unknown-5ef715f~63~ubuntu16.04.1*
G04 #@! TF.CreationDate,2018-05-28T16:07:58+01:00*
G04 #@! TF.ProjectId,nano-shield,6E616E6F2D736869656C642E6B696361,rev?*
G04 #@! TF.SameCoordinates,Original*
G04 #@! TF.FileFunction,Copper,L2,Bot,Signal*
G04 #@! TF.FilePolarity,Positive*
%FSLAX46Y46*%
G04 Gerber Fmt 4.6, Leading zero omitted, Abs format (unit mm)*
G04 Created by KiCad (PCBNEW 5.0.0-rc2-dev-unknown-5ef715f~63~ubuntu16.04.1) date Mon May 28 16:07:58 2018*
%MOMM*%
%LPD*%
G01*
G04 APERTURE LIST*
%ADD10C,1.900000*%
%ADD11R,1.900000X1.900000*%
%ADD12R,5.000000X2.400000*%
%ADD13C,0.800000*%
%ADD14C,0.300000*%
%ADD15C,0.290000*%
G04 APERTURE END LIST*
D10*
X48259999Y-73660000D03*
X50799999Y-73660000D03*
X53339999Y-73660000D03*
X55879999Y-73660000D03*
X58419999Y-73660000D03*
X60959999Y-73660000D03*
X63499999Y-73660000D03*
X66039999Y-73660000D03*
X68579999Y-73660000D03*
X71119999Y-73660000D03*
X73659999Y-73660000D03*
X76199999Y-73660000D03*
X78739999Y-73660000D03*
X81279999Y-73660000D03*
X83819999Y-73660000D03*
X86359999Y-73660000D03*
X88899999Y-73660000D03*
X91439999Y-73660000D03*
X93979999Y-73660000D03*
D11*
X96519999Y-73660000D03*
X48260000Y-30480000D03*
D10*
X50800000Y-30480000D03*
X53340000Y-30480000D03*
X55880000Y-30480000D03*
X58420000Y-30480000D03*
X60960000Y-30480000D03*
X63500000Y-30480000D03*
X66040000Y-30480000D03*
X68580000Y-30480000D03*
X71120000Y-30480000D03*
X73660000Y-30480000D03*
X76200000Y-30480000D03*
X78740000Y-30480000D03*
X81280000Y-30480000D03*
X83820000Y-30480000D03*
X86360000Y-30480000D03*
X88900000Y-30480000D03*
X91440000Y-30480000D03*
X93980000Y-30480000D03*
X96520000Y-30480000D03*
D11*
X66040000Y-43180000D03*
D10*
X68580000Y-43180000D03*
X71120000Y-43180000D03*
X73660000Y-43180000D03*
X76200000Y-43180000D03*
X78740000Y-43180000D03*
X66040000Y-58420000D03*
X68580000Y-58420000D03*
X71120000Y-58420000D03*
X73660000Y-58420000D03*
X76200000Y-58420000D03*
D11*
X78740000Y-58420000D03*
X45720000Y-36830001D03*
D10*
X45720000Y-34290001D03*
X48260000Y-58420000D03*
D11*
X48260000Y-55880000D03*
D12*
X95250000Y-46425000D03*
X95250000Y-55175000D03*
X39370000Y-60395000D03*
X39370000Y-69145000D03*
X39370000Y-43745000D03*
X39370000Y-34995000D03*
X39370000Y-47695000D03*
X39370000Y-56445000D03*
D13*
X55372000Y-36830000D03*
X54275000Y-41229000D03*
X52201000Y-49915000D03*
X54275000Y-52243000D03*
X60025000Y-52151000D03*
X61957000Y-50565000D03*
X52832000Y-50546000D03*
X95250000Y-57150000D03*
X91751000Y-55175000D03*
X95250000Y-44450000D03*
X91891000Y-46425000D03*
X39370000Y-32766000D03*
X42615000Y-34995000D03*
X42869000Y-43745000D03*
X42869000Y-47695000D03*
X42869000Y-56445000D03*
X42729000Y-60395000D03*
X42729000Y-69145000D03*
X39370000Y-71374000D03*
X58166000Y-44704000D03*
D14*
X55372000Y-36830000D02*
X55372000Y-35052000D01*
X58420000Y-32004000D02*
X58420000Y-30480000D01*
X55372000Y-35052000D02*
X58420000Y-32004000D01*
X78740000Y-43180000D02*
X78740000Y-37084000D01*
X76200000Y-34544000D02*
X76200000Y-30480000D01*
X78740000Y-37084000D02*
X76200000Y-34544000D01*
X54275000Y-41229000D02*
X56815000Y-41229000D01*
X60960000Y-37084000D02*
X60960000Y-30480000D01*
X56815000Y-41229000D02*
X60960000Y-37084000D01*
D15*
X36205000Y-28585000D02*
X98415000Y-28585000D01*
X36205000Y-28860500D02*
X98415000Y-28860500D01*
X36205000Y-29136000D02*
X46931002Y-29136000D01*
X49588999Y-29136000D02*
X50138080Y-29136000D01*
X51461921Y-29136000D02*
X52678080Y-29136000D01*
X54001921Y-29136000D02*
X55218080Y-29136000D01*
X56541921Y-29136000D02*
X57758080Y-29136000D01*
X59081921Y-29136000D02*
X60298080Y-29136000D01*
X61621921Y-29136000D02*
X62838080Y-29136000D01*
X64161921Y-29136000D02*
X65378080Y-29136000D01*
X66701921Y-29136000D02*
X67918080Y-29136000D01*
X69241921Y-29136000D02*
X70458080Y-29136000D01*
X71781921Y-29136000D02*
X72998080Y-29136000D01*
X74321921Y-29136000D02*
X75538080Y-29136000D01*
X76861921Y-29136000D02*
X78078080Y-29136000D01*
X79401921Y-29136000D02*
X80618080Y-29136000D01*
X81941921Y-29136000D02*
X83158080Y-29136000D01*
X84481921Y-29136000D02*
X85698080Y-29136000D01*
X87021921Y-29136000D02*
X88238080Y-29136000D01*
X89561921Y-29136000D02*
X90778080Y-29136000D01*
X92101921Y-29136000D02*
X93318080Y-29136000D01*
X94641921Y-29136000D02*
X95858080Y-29136000D01*
X97181921Y-29136000D02*
X98415000Y-29136000D01*
X36205000Y-29411500D02*
X46776424Y-29411500D01*
X49743577Y-29411500D02*
X49754250Y-29411500D01*
X51845750Y-29411500D02*
X52294250Y-29411500D01*
X54385750Y-29411500D02*
X54834250Y-29411500D01*
X56925750Y-29411500D02*
X57374250Y-29411500D01*
X59465750Y-29411500D02*
X59914250Y-29411500D01*
X62005750Y-29411500D02*
X62454250Y-29411500D01*
X64545750Y-29411500D02*
X64994250Y-29411500D01*
X67085750Y-29411500D02*
X67534250Y-29411500D01*
X69625750Y-29411500D02*
X70074250Y-29411500D01*
X72165750Y-29411500D02*
X72614250Y-29411500D01*
X74705750Y-29411500D02*
X75154250Y-29411500D01*
X77245750Y-29411500D02*
X77694250Y-29411500D01*
X79785750Y-29411500D02*
X80234250Y-29411500D01*
X82325750Y-29411500D02*
X82774250Y-29411500D01*
X84865750Y-29411500D02*
X85314250Y-29411500D01*
X87405750Y-29411500D02*
X87854250Y-29411500D01*
X89945750Y-29411500D02*
X90394250Y-29411500D01*
X92485750Y-29411500D02*
X92934250Y-29411500D01*
X95025750Y-29411500D02*
X95474250Y-29411500D01*
X97565750Y-29411500D02*
X98415000Y-29411500D01*
X36205000Y-29687000D02*
X46762363Y-29687000D01*
X52068156Y-29687000D02*
X52071845Y-29687000D01*
X54608156Y-29687000D02*
X54611845Y-29687000D01*
X57148156Y-29687000D02*
X57151845Y-29687000D01*
X59688156Y-29687000D02*
X59691845Y-29687000D01*
X62228156Y-29687000D02*
X62231845Y-29687000D01*
X64768156Y-29687000D02*
X64771845Y-29687000D01*
X67308156Y-29687000D02*
X67311845Y-29687000D01*
X69848156Y-29687000D02*
X69851845Y-29687000D01*
X72388156Y-29687000D02*
X72391845Y-29687000D01*
X74928156Y-29687000D02*
X74931845Y-29687000D01*
X77468156Y-29687000D02*
X77471845Y-29687000D01*
X80008156Y-29687000D02*
X80011845Y-29687000D01*
X82548156Y-29687000D02*
X82551845Y-29687000D01*
X85088156Y-29687000D02*
X85091845Y-29687000D01*
X87628156Y-29687000D02*
X87631845Y-29687000D01*
X90168156Y-29687000D02*
X90171845Y-29687000D01*
X92708156Y-29687000D02*
X92711845Y-29687000D01*
X95248156Y-29687000D02*
X95251845Y-29687000D01*
X97788156Y-29687000D02*
X98415000Y-29687000D01*
X36205000Y-29962500D02*
X46762363Y-29962500D01*
X97923822Y-29962500D02*
X98415000Y-29962500D01*
X36205000Y-30238000D02*
X46762363Y-30238000D01*
X97996153Y-30238000D02*
X98415000Y-30238000D01*
X36205000Y-30513500D02*
X46762363Y-30513500D01*
X98015000Y-30513500D02*
X98415000Y-30513500D01*
X36205000Y-30789000D02*
X46762363Y-30789000D01*
X97982824Y-30789000D02*
X98415000Y-30789000D01*
X36205000Y-31064500D02*
X46762363Y-31064500D01*
X97896068Y-31064500D02*
X98415000Y-31064500D01*
X36205000Y-31340000D02*
X46762363Y-31340000D01*
X52023388Y-31340000D02*
X52116611Y-31340000D01*
X54563388Y-31340000D02*
X54656611Y-31340000D01*
X57103388Y-31340000D02*
X57196611Y-31340000D01*
X59643388Y-31340000D02*
X59736611Y-31340000D01*
X62183388Y-31340000D02*
X62276611Y-31340000D01*
X64723388Y-31340000D02*
X64816611Y-31340000D01*
X67263388Y-31340000D02*
X67356611Y-31340000D01*
X69803388Y-31340000D02*
X69896611Y-31340000D01*
X72343388Y-31340000D02*
X72436611Y-31340000D01*
X74883388Y-31340000D02*
X74976611Y-31340000D01*
X77423388Y-31340000D02*
X77516611Y-31340000D01*
X79963388Y-31340000D02*
X80056611Y-31340000D01*
X82503388Y-31340000D02*
X82596611Y-31340000D01*
X85043388Y-31340000D02*
X85136611Y-31340000D01*
X87583388Y-31340000D02*
X87676611Y-31340000D01*
X90123388Y-31340000D02*
X90216611Y-31340000D01*
X92663388Y-31340000D02*
X92756611Y-31340000D01*
X95203388Y-31340000D02*
X95296611Y-31340000D01*
X97743388Y-31340000D02*
X98415000Y-31340000D01*
X36205000Y-31615500D02*
X46796747Y-31615500D01*
X49723253Y-31615500D02*
X49821250Y-31615500D01*
X51778750Y-31615500D02*
X52361250Y-31615500D01*
X54318750Y-31615500D02*
X54901250Y-31615500D01*
X56858750Y-31615500D02*
X57441250Y-31615500D01*
X59398750Y-31615500D02*
X59981250Y-31615500D01*
X61938750Y-31615500D02*
X62521250Y-31615500D01*
X64478750Y-31615500D02*
X65061250Y-31615500D01*
X67018750Y-31615500D02*
X67601250Y-31615500D01*
X69558750Y-31615500D02*
X70141250Y-31615500D01*
X72098750Y-31615500D02*
X72681250Y-31615500D01*
X74638750Y-31615500D02*
X75221250Y-31615500D01*
X77178750Y-31615500D02*
X77761250Y-31615500D01*
X79718750Y-31615500D02*
X80301250Y-31615500D01*
X82258750Y-31615500D02*
X82841250Y-31615500D01*
X84798750Y-31615500D02*
X85381250Y-31615500D01*
X87338750Y-31615500D02*
X87921250Y-31615500D01*
X89878750Y-31615500D02*
X90461250Y-31615500D01*
X92418750Y-31615500D02*
X93001250Y-31615500D01*
X94958750Y-31615500D02*
X95541250Y-31615500D01*
X97498750Y-31615500D02*
X98415000Y-31615500D01*
X36205000Y-31891000D02*
X47016330Y-31891000D01*
X49503669Y-31891000D02*
X50299831Y-31891000D01*
X51300168Y-31891000D02*
X52839831Y-31891000D01*
X53840168Y-31891000D02*
X55379831Y-31891000D01*
X56380168Y-31891000D02*
X57550122Y-31891000D01*
X59115000Y-31891000D02*
X60265001Y-31891000D01*
X61655000Y-31891000D02*
X62999831Y-31891000D01*
X64000168Y-31891000D02*
X65539831Y-31891000D01*
X66540168Y-31891000D02*
X68079831Y-31891000D01*
X69080168Y-31891000D02*
X70619831Y-31891000D01*
X71620168Y-31891000D02*
X73159831Y-31891000D01*
X74160168Y-31891000D02*
X75505001Y-31891000D01*
X76895000Y-31891000D02*
X78239831Y-31891000D01*
X79240168Y-31891000D02*
X80779831Y-31891000D01*
X81780168Y-31891000D02*
X83319831Y-31891000D01*
X84320168Y-31891000D02*
X85859831Y-31891000D01*
X86860168Y-31891000D02*
X88399831Y-31891000D01*
X89400168Y-31891000D02*
X90939831Y-31891000D01*
X91940168Y-31891000D02*
X93479831Y-31891000D01*
X94480168Y-31891000D02*
X96019831Y-31891000D01*
X97020168Y-31891000D02*
X98415000Y-31891000D01*
X36205000Y-32166500D02*
X57274622Y-32166500D01*
X59096978Y-32166500D02*
X60265001Y-32166500D01*
X61655000Y-32166500D02*
X75505001Y-32166500D01*
X76895000Y-32166500D02*
X98415000Y-32166500D01*
X36205000Y-32442000D02*
X56999122Y-32442000D01*
X58959623Y-32442000D02*
X60265001Y-32442000D01*
X61655000Y-32442000D02*
X75505001Y-32442000D01*
X76895000Y-32442000D02*
X98415000Y-32442000D01*
X36205000Y-32717500D02*
X56723622Y-32717500D01*
X58689378Y-32717500D02*
X60265001Y-32717500D01*
X61655000Y-32717500D02*
X75505001Y-32717500D01*
X76895000Y-32717500D02*
X98415000Y-32717500D01*
X36205000Y-32993000D02*
X45196695Y-32993000D01*
X46238348Y-32993000D02*
X56448122Y-32993000D01*
X58413878Y-32993000D02*
X60265001Y-32993000D01*
X61655000Y-32993000D02*
X75505001Y-32993000D01*
X76895000Y-32993000D02*
X98415000Y-32993000D01*
X36205000Y-33268500D02*
X44853552Y-33268500D01*
X46586449Y-33268500D02*
X56172622Y-33268500D01*
X58138378Y-33268500D02*
X60265001Y-33268500D01*
X61655000Y-33268500D02*
X75505001Y-33268500D01*
X76895000Y-33268500D02*
X98415000Y-33268500D01*
X36205000Y-33544000D02*
X44540083Y-33544000D01*
X44966928Y-33544000D02*
X44981070Y-33544000D01*
X46458930Y-33544000D02*
X46473072Y-33544000D01*
X46906336Y-33544000D02*
X55897122Y-33544000D01*
X57862878Y-33544000D02*
X60265001Y-33544000D01*
X61655000Y-33544000D02*
X75505001Y-33544000D01*
X76895000Y-33544000D02*
X98415000Y-33544000D01*
X36205000Y-33819500D02*
X44406599Y-33819500D01*
X45242428Y-33819500D02*
X45256570Y-33819500D01*
X46183430Y-33819500D02*
X46197572Y-33819500D01*
X47038497Y-33819500D02*
X55621622Y-33819500D01*
X57587378Y-33819500D02*
X60265001Y-33819500D01*
X61655000Y-33819500D02*
X75505001Y-33819500D01*
X76895000Y-33819500D02*
X98415000Y-33819500D01*
X36205000Y-34095000D02*
X44338667Y-34095000D01*
X45517928Y-34095000D02*
X45532070Y-34095000D01*
X45907930Y-34095000D02*
X45922072Y-34095000D01*
X47105531Y-34095000D02*
X55346122Y-34095000D01*
X57311878Y-34095000D02*
X60265001Y-34095000D01*
X61655000Y-34095000D02*
X75505001Y-34095000D01*
X76895000Y-34095000D02*
X98415000Y-34095000D01*
X36205000Y-34370500D02*
X44327307Y-34370500D01*
X45632430Y-34370500D02*
X45646572Y-34370500D01*
X45793428Y-34370500D02*
X45807570Y-34370500D01*
X47116755Y-34370500D02*
X55070622Y-34370500D01*
X57036378Y-34370500D02*
X60265001Y-34370500D01*
X61655000Y-34370500D02*
X75505001Y-34370500D01*
X77009378Y-34370500D02*
X98415000Y-34370500D01*
X36205000Y-34646000D02*
X44371187Y-34646000D01*
X45356930Y-34646000D02*
X45371072Y-34646000D01*
X46068928Y-34646000D02*
X46083070Y-34646000D01*
X47072651Y-34646000D02*
X54806116Y-34646000D01*
X56760878Y-34646000D02*
X60265001Y-34646000D01*
X61655000Y-34646000D02*
X75511684Y-34646000D01*
X77284878Y-34646000D02*
X98415000Y-34646000D01*
X36205000Y-34921500D02*
X44475954Y-34921500D01*
X45081430Y-34921500D02*
X45095572Y-34921500D01*
X46344428Y-34921500D02*
X46358570Y-34921500D01*
X46966481Y-34921500D02*
X54686492Y-34921500D01*
X56485378Y-34921500D02*
X60265001Y-34921500D01*
X61655000Y-34921500D02*
X75613727Y-34921500D01*
X77560378Y-34921500D02*
X98415000Y-34921500D01*
X36205000Y-35197000D02*
X44799040Y-35197000D01*
X44805930Y-35197000D02*
X44820072Y-35197000D01*
X46619928Y-35197000D02*
X46634070Y-35197000D01*
X46640959Y-35197000D02*
X54677001Y-35197000D01*
X56209878Y-35197000D02*
X60265001Y-35197000D01*
X61655000Y-35197000D02*
X75870122Y-35197000D01*
X77835878Y-35197000D02*
X98415000Y-35197000D01*
X36205000Y-35472500D02*
X44407453Y-35472500D01*
X47032548Y-35472500D02*
X54677001Y-35472500D01*
X56067000Y-35472500D02*
X60265001Y-35472500D01*
X61655000Y-35472500D02*
X76145622Y-35472500D01*
X78111378Y-35472500D02*
X98415000Y-35472500D01*
X36205000Y-35748000D02*
X44240519Y-35748000D01*
X47199482Y-35748000D02*
X54677001Y-35748000D01*
X56067000Y-35748000D02*
X60265001Y-35748000D01*
X61655000Y-35748000D02*
X76421122Y-35748000D01*
X78386878Y-35748000D02*
X98415000Y-35748000D01*
X36205000Y-36023500D02*
X44222363Y-36023500D01*
X47217637Y-36023500D02*
X54677001Y-36023500D01*
X56067000Y-36023500D02*
X60265001Y-36023500D01*
X61655000Y-36023500D02*
X76696622Y-36023500D01*
X78662378Y-36023500D02*
X98415000Y-36023500D01*
X36205000Y-36299000D02*
X44222363Y-36299000D01*
X47217637Y-36299000D02*
X54590262Y-36299000D01*
X56153739Y-36299000D02*
X60265001Y-36299000D01*
X61655000Y-36299000D02*
X76972122Y-36299000D01*
X78937878Y-36299000D02*
X98415000Y-36299000D01*
X36205000Y-36574500D02*
X44222363Y-36574500D01*
X47217637Y-36574500D02*
X54459309Y-36574500D01*
X56284692Y-36574500D02*
X60265001Y-36574500D01*
X61655000Y-36574500D02*
X77247622Y-36574500D01*
X79214708Y-36574500D02*
X98415000Y-36574500D01*
X36205000Y-36850000D02*
X44222363Y-36850000D01*
X47217637Y-36850000D02*
X54427000Y-36850000D01*
X56317000Y-36850000D02*
X60211122Y-36850000D01*
X61655000Y-36850000D02*
X77523122Y-36850000D01*
X79395289Y-36850000D02*
X98415000Y-36850000D01*
X36205000Y-37125500D02*
X44222363Y-37125500D01*
X47217637Y-37125500D02*
X54471539Y-37125500D01*
X56272460Y-37125500D02*
X59935622Y-37125500D01*
X61654274Y-37125500D02*
X77798622Y-37125500D01*
X79435000Y-37125500D02*
X98415000Y-37125500D01*
X36205000Y-37401000D02*
X44222363Y-37401000D01*
X47217637Y-37401000D02*
X54616988Y-37401000D01*
X56127011Y-37401000D02*
X59660122Y-37401000D01*
X61578611Y-37401000D02*
X78045001Y-37401000D01*
X79435000Y-37401000D02*
X98415000Y-37401000D01*
X36205000Y-37676500D02*
X44222363Y-37676500D01*
X47217637Y-37676500D02*
X54946228Y-37676500D01*
X55797771Y-37676500D02*
X59384622Y-37676500D01*
X61350378Y-37676500D02*
X78045001Y-37676500D01*
X79435000Y-37676500D02*
X98415000Y-37676500D01*
X36205000Y-37952000D02*
X44252651Y-37952000D01*
X47187348Y-37952000D02*
X59109122Y-37952000D01*
X61074878Y-37952000D02*
X78045001Y-37952000D01*
X79435000Y-37952000D02*
X98415000Y-37952000D01*
X36205000Y-38227500D02*
X44456189Y-38227500D01*
X46983810Y-38227500D02*
X58833622Y-38227500D01*
X60799378Y-38227500D02*
X78045001Y-38227500D01*
X79435000Y-38227500D02*
X98415000Y-38227500D01*
X36205000Y-38503000D02*
X58558122Y-38503000D01*
X60523878Y-38503000D02*
X78045001Y-38503000D01*
X79435000Y-38503000D02*
X98415000Y-38503000D01*
X36205000Y-38778500D02*
X58282622Y-38778500D01*
X60248378Y-38778500D02*
X78045001Y-38778500D01*
X79435000Y-38778500D02*
X98415000Y-38778500D01*
X36205000Y-39054000D02*
X58007122Y-39054000D01*
X59972878Y-39054000D02*
X78045001Y-39054000D01*
X79435000Y-39054000D02*
X98415000Y-39054000D01*
X36205000Y-39329500D02*
X57731622Y-39329500D01*
X59697378Y-39329500D02*
X78045001Y-39329500D01*
X79435000Y-39329500D02*
X98415000Y-39329500D01*
X36205000Y-39605000D02*
X57456122Y-39605000D01*
X59421878Y-39605000D02*
X78045001Y-39605000D01*
X79435000Y-39605000D02*
X98415000Y-39605000D01*
X36205000Y-39880500D02*
X57180622Y-39880500D01*
X59146378Y-39880500D02*
X78045001Y-39880500D01*
X79435000Y-39880500D02*
X98415000Y-39880500D01*
X36205000Y-40156000D02*
X56905122Y-40156000D01*
X58870878Y-40156000D02*
X78045001Y-40156000D01*
X79435000Y-40156000D02*
X98415000Y-40156000D01*
X36205000Y-40431500D02*
X53767589Y-40431500D01*
X54782412Y-40431500D02*
X56629622Y-40431500D01*
X58595378Y-40431500D02*
X78045001Y-40431500D01*
X79435000Y-40431500D02*
X98415000Y-40431500D01*
X36205000Y-40707000D02*
X53487248Y-40707000D01*
X58319878Y-40707000D02*
X78045001Y-40707000D01*
X79435000Y-40707000D02*
X98415000Y-40707000D01*
X36205000Y-40982500D02*
X53360519Y-40982500D01*
X58044378Y-40982500D02*
X78045001Y-40982500D01*
X79435000Y-40982500D02*
X98415000Y-40982500D01*
X36205000Y-41258000D02*
X53330000Y-41258000D01*
X57768878Y-41258000D02*
X78045001Y-41258000D01*
X79435000Y-41258000D02*
X98415000Y-41258000D01*
X36205000Y-41533500D02*
X53378267Y-41533500D01*
X57493378Y-41533500D02*
X78045001Y-41533500D01*
X79435000Y-41533500D02*
X98415000Y-41533500D01*
X36205000Y-41809000D02*
X53526002Y-41809000D01*
X57203801Y-41809000D02*
X64743901Y-41809000D01*
X67336100Y-41809000D02*
X67983264Y-41809000D01*
X69176737Y-41809000D02*
X70523264Y-41809000D01*
X71716737Y-41809000D02*
X73063264Y-41809000D01*
X74256737Y-41809000D02*
X75603264Y-41809000D01*
X76796737Y-41809000D02*
X78045001Y-41809000D01*
X79435000Y-41809000D02*
X98415000Y-41809000D01*
X36205000Y-42084500D02*
X53870956Y-42084500D01*
X54679043Y-42084500D02*
X64564614Y-42084500D01*
X67515387Y-42084500D02*
X67561250Y-42084500D01*
X69598750Y-42084500D02*
X70101250Y-42084500D01*
X72138750Y-42084500D02*
X72641250Y-42084500D01*
X74678750Y-42084500D02*
X75181250Y-42084500D01*
X77218750Y-42084500D02*
X77721250Y-42084500D01*
X79758750Y-42084500D02*
X98415000Y-42084500D01*
X36205000Y-42360000D02*
X64542363Y-42360000D01*
X69830116Y-42360000D02*
X69869885Y-42360000D01*
X72370116Y-42360000D02*
X72409885Y-42360000D01*
X74910116Y-42360000D02*
X74949885Y-42360000D01*
X77450116Y-42360000D02*
X77489885Y-42360000D01*
X79990116Y-42360000D02*
X98415000Y-42360000D01*
X36205000Y-42635500D02*
X64542363Y-42635500D01*
X80132638Y-42635500D02*
X98415000Y-42635500D01*
X36205000Y-42911000D02*
X64542363Y-42911000D01*
X80210782Y-42911000D02*
X98415000Y-42911000D01*
X36205000Y-43186500D02*
X64542363Y-43186500D01*
X80235000Y-43186500D02*
X98415000Y-43186500D01*
X36205000Y-43462000D02*
X64542363Y-43462000D01*
X80208195Y-43462000D02*
X98415000Y-43462000D01*
X36205000Y-43737500D02*
X64542363Y-43737500D01*
X80127252Y-43737500D02*
X98415000Y-43737500D01*
X36205000Y-44013000D02*
X64542363Y-44013000D01*
X69821428Y-44013000D02*
X69878571Y-44013000D01*
X72361428Y-44013000D02*
X72418571Y-44013000D01*
X74901428Y-44013000D02*
X74958571Y-44013000D01*
X77441428Y-44013000D02*
X77498571Y-44013000D01*
X79981428Y-44013000D02*
X98415000Y-44013000D01*
X36205000Y-44288500D02*
X64568556Y-44288500D01*
X67511443Y-44288500D02*
X67574250Y-44288500D01*
X69585750Y-44288500D02*
X70114250Y-44288500D01*
X72125750Y-44288500D02*
X72654250Y-44288500D01*
X74665750Y-44288500D02*
X75194250Y-44288500D01*
X77205750Y-44288500D02*
X77734250Y-44288500D01*
X79745750Y-44288500D02*
X98415000Y-44288500D01*
X36205000Y-44564000D02*
X64759741Y-44564000D01*
X67320258Y-44564000D02*
X68014647Y-44564000D01*
X69145352Y-44564000D02*
X70554647Y-44564000D01*
X71685352Y-44564000D02*
X73094647Y-44564000D01*
X74225352Y-44564000D02*
X75634647Y-44564000D01*
X76765352Y-44564000D02*
X78174647Y-44564000D01*
X79305352Y-44564000D02*
X98415000Y-44564000D01*
X36205000Y-44839500D02*
X98415000Y-44839500D01*
X36205000Y-45115000D02*
X98415000Y-45115000D01*
X36205000Y-45390500D02*
X98415000Y-45390500D01*
X36205000Y-45666000D02*
X98415000Y-45666000D01*
X36205000Y-45941500D02*
X98415000Y-45941500D01*
X36205000Y-46217000D02*
X98415000Y-46217000D01*
X36205000Y-46492500D02*
X98415000Y-46492500D01*
X36205000Y-46768000D02*
X98415000Y-46768000D01*
X36205000Y-47043500D02*
X98415000Y-47043500D01*
X36205000Y-47319000D02*
X98415000Y-47319000D01*
X36205000Y-47594500D02*
X98415000Y-47594500D01*
X36205000Y-47870000D02*
X98415000Y-47870000D01*
X36205000Y-48145500D02*
X98415000Y-48145500D01*
X36205000Y-48421000D02*
X98415000Y-48421000D01*
X36205000Y-48696500D02*
X98415000Y-48696500D01*
X36205000Y-48972000D02*
X98415000Y-48972000D01*
X36205000Y-49247500D02*
X98415000Y-49247500D01*
X36205000Y-49523000D02*
X98415000Y-49523000D01*
X36205000Y-49798500D02*
X98415000Y-49798500D01*
X36205000Y-50074000D02*
X98415000Y-50074000D01*
X36205000Y-50349500D02*
X98415000Y-50349500D01*
X36205000Y-50625000D02*
X98415000Y-50625000D01*
X36205000Y-50900500D02*
X98415000Y-50900500D01*
X36205000Y-51176000D02*
X98415000Y-51176000D01*
X36205000Y-51451500D02*
X98415000Y-51451500D01*
X36205000Y-51727000D02*
X98415000Y-51727000D01*
X36205000Y-52002500D02*
X98415000Y-52002500D01*
X36205000Y-52278000D02*
X98415000Y-52278000D01*
X36205000Y-52553500D02*
X98415000Y-52553500D01*
X36205000Y-52829000D02*
X98415000Y-52829000D01*
X36205000Y-53104500D02*
X98415000Y-53104500D01*
X36205000Y-53380000D02*
X98415000Y-53380000D01*
X36205000Y-53655500D02*
X98415000Y-53655500D01*
X36205000Y-53931000D02*
X98415000Y-53931000D01*
X36205000Y-54206500D02*
X98415000Y-54206500D01*
X36205000Y-54482000D02*
X46996801Y-54482000D01*
X49523200Y-54482000D02*
X98415000Y-54482000D01*
X36205000Y-54757500D02*
X46792804Y-54757500D01*
X49727197Y-54757500D02*
X98415000Y-54757500D01*
X36205000Y-55033000D02*
X46762363Y-55033000D01*
X49757637Y-55033000D02*
X98415000Y-55033000D01*
X36205000Y-55308500D02*
X46762363Y-55308500D01*
X49757637Y-55308500D02*
X98415000Y-55308500D01*
X36205000Y-55584000D02*
X46762363Y-55584000D01*
X49757637Y-55584000D02*
X98415000Y-55584000D01*
X36205000Y-55859500D02*
X46762363Y-55859500D01*
X49757637Y-55859500D02*
X98415000Y-55859500D01*
X36205000Y-56135000D02*
X46762363Y-56135000D01*
X49757637Y-56135000D02*
X98415000Y-56135000D01*
X36205000Y-56410500D02*
X46762363Y-56410500D01*
X49757637Y-56410500D02*
X98415000Y-56410500D01*
X36205000Y-56686000D02*
X46762363Y-56686000D01*
X49757637Y-56686000D02*
X98415000Y-56686000D01*
X36205000Y-56961500D02*
X46780366Y-56961500D01*
X49739633Y-56961500D02*
X65709257Y-56961500D01*
X66370744Y-56961500D02*
X68249257Y-56961500D01*
X68910744Y-56961500D02*
X70789257Y-56961500D01*
X71450744Y-56961500D02*
X73329257Y-56961500D01*
X73990744Y-56961500D02*
X75869257Y-56961500D01*
X76530744Y-56961500D02*
X77588832Y-56961500D01*
X79891169Y-56961500D02*
X98415000Y-56961500D01*
X36205000Y-57237000D02*
X46946841Y-57237000D01*
X49573158Y-57237000D02*
X65119555Y-57237000D01*
X66960446Y-57237000D02*
X67659555Y-57237000D01*
X69500446Y-57237000D02*
X70199555Y-57237000D01*
X72040446Y-57237000D02*
X72739555Y-57237000D01*
X74580446Y-57237000D02*
X75279555Y-57237000D01*
X77120446Y-57237000D02*
X77296572Y-57237000D01*
X80183429Y-57237000D02*
X98415000Y-57237000D01*
X36205000Y-57512500D02*
X47340283Y-57512500D01*
X47345429Y-57512500D02*
X47359571Y-57512500D01*
X49160429Y-57512500D02*
X49174571Y-57512500D01*
X49179718Y-57512500D02*
X64848351Y-57512500D01*
X67231650Y-57512500D02*
X67388351Y-57512500D01*
X69771650Y-57512500D02*
X69928351Y-57512500D01*
X72311650Y-57512500D02*
X72468351Y-57512500D01*
X74851650Y-57512500D02*
X75008351Y-57512500D01*
X80237637Y-57512500D02*
X98415000Y-57512500D01*
X36205000Y-57788000D02*
X47013811Y-57788000D01*
X47620929Y-57788000D02*
X47635071Y-57788000D01*
X48884929Y-57788000D02*
X48899071Y-57788000D01*
X49503801Y-57788000D02*
X64683607Y-57788000D01*
X80237637Y-57788000D02*
X98415000Y-57788000D01*
X36205000Y-58063500D02*
X46907521Y-58063500D01*
X47896429Y-58063500D02*
X47910571Y-58063500D01*
X48609429Y-58063500D02*
X48623571Y-58063500D01*
X49608680Y-58063500D02*
X64586624Y-58063500D01*
X80237637Y-58063500D02*
X98415000Y-58063500D01*
X36205000Y-58339000D02*
X46863313Y-58339000D01*
X48171929Y-58339000D02*
X48186071Y-58339000D01*
X48333929Y-58339000D02*
X48348071Y-58339000D01*
X49652662Y-58339000D02*
X64545000Y-58339000D01*
X80237637Y-58339000D02*
X98415000Y-58339000D01*
X36205000Y-58614500D02*
X46874438Y-58614500D01*
X48058429Y-58614500D02*
X48072571Y-58614500D01*
X48447429Y-58614500D02*
X48461571Y-58614500D01*
X49641400Y-58614500D02*
X64554399Y-58614500D01*
X80237637Y-58614500D02*
X98415000Y-58614500D01*
X36205000Y-58890000D02*
X46941370Y-58890000D01*
X47782929Y-58890000D02*
X47797071Y-58890000D01*
X48722929Y-58890000D02*
X48737071Y-58890000D01*
X49573573Y-58890000D02*
X64616503Y-58890000D01*
X80237637Y-58890000D02*
X98415000Y-58890000D01*
X36205000Y-59165500D02*
X47073329Y-59165500D01*
X47507429Y-59165500D02*
X47521571Y-59165500D01*
X48998429Y-59165500D02*
X49012571Y-59165500D01*
X49440209Y-59165500D02*
X64740105Y-59165500D01*
X80237637Y-59165500D02*
X98415000Y-59165500D01*
X36205000Y-59441000D02*
X47393349Y-59441000D01*
X49126650Y-59441000D02*
X64946750Y-59441000D01*
X67133250Y-59441000D02*
X67486750Y-59441000D01*
X69673250Y-59441000D02*
X70026750Y-59441000D01*
X72213250Y-59441000D02*
X72566750Y-59441000D01*
X74753250Y-59441000D02*
X75106750Y-59441000D01*
X80230643Y-59441000D02*
X98415000Y-59441000D01*
X36205000Y-59716500D02*
X47740191Y-59716500D01*
X48784328Y-59716500D02*
X65289420Y-59716500D01*
X66790579Y-59716500D02*
X67829420Y-59716500D01*
X69330579Y-59716500D02*
X70369420Y-59716500D01*
X71870579Y-59716500D02*
X72909420Y-59716500D01*
X74410579Y-59716500D02*
X75449420Y-59716500D01*
X76950579Y-59716500D02*
X77369329Y-59716500D01*
X80110670Y-59716500D02*
X98415000Y-59716500D01*
X36205000Y-59992000D02*
X98415000Y-59992000D01*
X36205000Y-60267500D02*
X98415000Y-60267500D01*
X36205000Y-60543000D02*
X98415000Y-60543000D01*
X36205000Y-60818500D02*
X98415000Y-60818500D01*
X36205000Y-61094000D02*
X98415000Y-61094000D01*
X36205000Y-61369500D02*
X98415000Y-61369500D01*
X36205000Y-61645000D02*
X98415000Y-61645000D01*
X36205000Y-61920500D02*
X98415000Y-61920500D01*
X36205000Y-62196000D02*
X98415000Y-62196000D01*
X36205000Y-62471500D02*
X98415000Y-62471500D01*
X36205000Y-62747000D02*
X98415000Y-62747000D01*
X36205000Y-63022500D02*
X98415000Y-63022500D01*
X36205000Y-63298000D02*
X98415000Y-63298000D01*
X36205000Y-63573500D02*
X98415000Y-63573500D01*
X36205000Y-63849000D02*
X98415000Y-63849000D01*
X36205000Y-64124500D02*
X98415000Y-64124500D01*
X36205000Y-64400000D02*
X98415000Y-64400000D01*
X36205000Y-64675500D02*
X98415000Y-64675500D01*
X36205000Y-64951000D02*
X98415000Y-64951000D01*
X36205000Y-65226500D02*
X98415000Y-65226500D01*
X36205000Y-65502000D02*
X98415000Y-65502000D01*
X36205000Y-65777500D02*
X98415000Y-65777500D01*
X36205000Y-66053000D02*
X98415000Y-66053000D01*
X36205000Y-66328500D02*
X98415000Y-66328500D01*
X36205000Y-66604000D02*
X98415000Y-66604000D01*
X36205000Y-66879500D02*
X98415000Y-66879500D01*
X36205000Y-67155000D02*
X98415000Y-67155000D01*
X36205000Y-67430500D02*
X98415000Y-67430500D01*
X36205000Y-67706000D02*
X98415000Y-67706000D01*
X36205000Y-67981500D02*
X98415000Y-67981500D01*
X36205000Y-68257000D02*
X98415000Y-68257000D01*
X36205000Y-68532500D02*
X98415000Y-68532500D01*
X36205000Y-68808000D02*
X98415000Y-68808000D01*
X36205000Y-69083500D02*
X98415000Y-69083500D01*
X36205000Y-69359000D02*
X98415000Y-69359000D01*
X36205000Y-69634500D02*
X98415000Y-69634500D01*
X36205000Y-69910000D02*
X98415000Y-69910000D01*
X36205000Y-70185500D02*
X98415000Y-70185500D01*
X36205000Y-70461000D02*
X98415000Y-70461000D01*
X36205000Y-70736500D02*
X98415000Y-70736500D01*
X36205000Y-71012000D02*
X98415000Y-71012000D01*
X36205000Y-71287500D02*
X98415000Y-71287500D01*
X36205000Y-71563000D02*
X98415000Y-71563000D01*
X36205000Y-71838500D02*
X98415000Y-71838500D01*
X36205000Y-72114000D02*
X98415000Y-72114000D01*
X36205000Y-72389500D02*
X47470508Y-72389500D01*
X49049491Y-72389500D02*
X50010508Y-72389500D01*
X51589491Y-72389500D02*
X52550508Y-72389500D01*
X54129491Y-72389500D02*
X55090508Y-72389500D01*
X56669491Y-72389500D02*
X57630508Y-72389500D01*
X59209491Y-72389500D02*
X60382549Y-72389500D01*
X61550181Y-72389500D02*
X62710508Y-72389500D01*
X64289491Y-72389500D02*
X65250508Y-72389500D01*
X66829491Y-72389500D02*
X67790508Y-72389500D01*
X69369491Y-72389500D02*
X70330508Y-72389500D01*
X71909491Y-72389500D02*
X72870508Y-72389500D01*
X74449491Y-72389500D02*
X75410508Y-72389500D01*
X76989491Y-72389500D02*
X77950508Y-72389500D01*
X79529491Y-72389500D02*
X80490508Y-72389500D01*
X82069491Y-72389500D02*
X83242549Y-72389500D01*
X84410181Y-72389500D02*
X85570508Y-72389500D01*
X87149491Y-72389500D02*
X88110508Y-72389500D01*
X89689491Y-72389500D02*
X90650508Y-72389500D01*
X92229491Y-72389500D02*
X93190508Y-72389500D01*
X94769491Y-72389500D02*
X95127991Y-72389500D01*
X97912008Y-72389500D02*
X98415000Y-72389500D01*
X36205000Y-72665000D02*
X47140749Y-72665000D01*
X49379249Y-72665000D02*
X49680749Y-72665000D01*
X51919249Y-72665000D02*
X52220749Y-72665000D01*
X54459249Y-72665000D02*
X54760749Y-72665000D01*
X56999249Y-72665000D02*
X57300749Y-72665000D01*
X59539249Y-72665000D02*
X60082862Y-72665000D01*
X61837137Y-72665000D02*
X62380749Y-72665000D01*
X64619249Y-72665000D02*
X64920749Y-72665000D01*
X67159249Y-72665000D02*
X67460749Y-72665000D01*
X69699249Y-72665000D02*
X70000749Y-72665000D01*
X72239249Y-72665000D02*
X72540749Y-72665000D01*
X74779249Y-72665000D02*
X75080749Y-72665000D01*
X77319249Y-72665000D02*
X77620749Y-72665000D01*
X79859249Y-72665000D02*
X80160749Y-72665000D01*
X82399249Y-72665000D02*
X82942862Y-72665000D01*
X84697137Y-72665000D02*
X85240749Y-72665000D01*
X87479249Y-72665000D02*
X87780749Y-72665000D01*
X90019249Y-72665000D02*
X90320749Y-72665000D01*
X92559249Y-72665000D02*
X92860749Y-72665000D01*
X98013204Y-72665000D02*
X98415000Y-72665000D01*
X36205000Y-72940500D02*
X46942733Y-72940500D01*
X59737266Y-72940500D02*
X59764676Y-72940500D01*
X60233428Y-72940500D02*
X60247570Y-72940500D01*
X61672428Y-72940500D02*
X61686570Y-72940500D01*
X62160974Y-72940500D02*
X62182733Y-72940500D01*
X82597266Y-72940500D02*
X82624676Y-72940500D01*
X83093428Y-72940500D02*
X83107570Y-72940500D01*
X84532428Y-72940500D02*
X84546570Y-72940500D01*
X85020974Y-72940500D02*
X85042733Y-72940500D01*
X98017636Y-72940500D02*
X98415000Y-72940500D01*
X36205000Y-73216000D02*
X46825734Y-73216000D01*
X60508928Y-73216000D02*
X60523070Y-73216000D01*
X61396928Y-73216000D02*
X61411070Y-73216000D01*
X83368928Y-73216000D02*
X83383070Y-73216000D01*
X84256928Y-73216000D02*
X84271070Y-73216000D01*
X98017636Y-73216000D02*
X98415000Y-73216000D01*
X36205000Y-73491500D02*
X46769227Y-73491500D01*
X60784428Y-73491500D02*
X60798570Y-73491500D01*
X61121428Y-73491500D02*
X61135570Y-73491500D01*
X83644428Y-73491500D02*
X83658570Y-73491500D01*
X83981428Y-73491500D02*
X83995570Y-73491500D01*
X98017636Y-73491500D02*
X98415000Y-73491500D01*
X36205000Y-73767000D02*
X46764999Y-73767000D01*
X60845928Y-73767000D02*
X60860070Y-73767000D01*
X61059928Y-73767000D02*
X61074070Y-73767000D01*
X83705928Y-73767000D02*
X83720070Y-73767000D01*
X83919928Y-73767000D02*
X83934070Y-73767000D01*
X98017636Y-73767000D02*
X98415000Y-73767000D01*
X36205000Y-74042500D02*
X46811794Y-74042500D01*
X60570428Y-74042500D02*
X60584570Y-74042500D01*
X61335428Y-74042500D02*
X61349570Y-74042500D01*
X83430428Y-74042500D02*
X83444570Y-74042500D01*
X84195428Y-74042500D02*
X84209570Y-74042500D01*
X98017636Y-74042500D02*
X98415000Y-74042500D01*
X36205000Y-74318000D02*
X46914375Y-74318000D01*
X60294928Y-74318000D02*
X60309070Y-74318000D01*
X61610928Y-74318000D02*
X61625070Y-74318000D01*
X83154928Y-74318000D02*
X83169070Y-74318000D01*
X84470928Y-74318000D02*
X84485070Y-74318000D01*
X98017636Y-74318000D02*
X98415000Y-74318000D01*
X36205000Y-74593500D02*
X47085721Y-74593500D01*
X49434276Y-74593500D02*
X49625721Y-74593500D01*
X51974276Y-74593500D02*
X52165721Y-74593500D01*
X54514276Y-74593500D02*
X54705721Y-74593500D01*
X57054276Y-74593500D02*
X57245721Y-74593500D01*
X59594275Y-74593500D02*
X60058057Y-74593500D01*
X61861940Y-74593500D02*
X62325721Y-74593500D01*
X64674276Y-74593500D02*
X64865721Y-74593500D01*
X67214276Y-74593500D02*
X67405721Y-74593500D01*
X69754276Y-74593500D02*
X69945721Y-74593500D01*
X72294276Y-74593500D02*
X72485721Y-74593500D01*
X74834276Y-74593500D02*
X75025721Y-74593500D01*
X77374276Y-74593500D02*
X77565721Y-74593500D01*
X79914276Y-74593500D02*
X80105721Y-74593500D01*
X82454275Y-74593500D02*
X82918057Y-74593500D01*
X84721940Y-74593500D02*
X85185721Y-74593500D01*
X87534276Y-74593500D02*
X87725721Y-74593500D01*
X90074276Y-74593500D02*
X90265721Y-74593500D01*
X92614276Y-74593500D02*
X92805721Y-74593500D01*
X98017636Y-74593500D02*
X98415000Y-74593500D01*
X36205000Y-74869000D02*
X47378465Y-74869000D01*
X49141532Y-74869000D02*
X49918465Y-74869000D01*
X51681532Y-74869000D02*
X52458465Y-74869000D01*
X54221532Y-74869000D02*
X54998465Y-74869000D01*
X56761532Y-74869000D02*
X57538465Y-74869000D01*
X59301532Y-74869000D02*
X60264025Y-74869000D01*
X61663101Y-74869000D02*
X62618465Y-74869000D01*
X64381532Y-74869000D02*
X65158465Y-74869000D01*
X66921532Y-74869000D02*
X67698465Y-74869000D01*
X69461532Y-74869000D02*
X70238465Y-74869000D01*
X72001532Y-74869000D02*
X72778465Y-74869000D01*
X74541532Y-74869000D02*
X75318465Y-74869000D01*
X77081532Y-74869000D02*
X77858465Y-74869000D01*
X79621532Y-74869000D02*
X80398465Y-74869000D01*
X82161532Y-74869000D02*
X83124025Y-74869000D01*
X84523101Y-74869000D02*
X85478465Y-74869000D01*
X87241532Y-74869000D02*
X88018465Y-74869000D01*
X89781532Y-74869000D02*
X90558465Y-74869000D01*
X92321532Y-74869000D02*
X93098465Y-74869000D01*
X94861532Y-74869000D02*
X95090467Y-74869000D01*
X97949530Y-74869000D02*
X98415000Y-74869000D01*
X36205000Y-75144500D02*
X48059966Y-75144500D01*
X48460031Y-75144500D02*
X50599966Y-75144500D01*
X51000031Y-75144500D02*
X53139966Y-75144500D01*
X53540031Y-75144500D02*
X55679966Y-75144500D01*
X56080031Y-75144500D02*
X58219966Y-75144500D01*
X58620031Y-75144500D02*
X63299966Y-75144500D01*
X63700031Y-75144500D02*
X65839966Y-75144500D01*
X66240031Y-75144500D02*
X68379966Y-75144500D01*
X68780031Y-75144500D02*
X70919966Y-75144500D01*
X71320031Y-75144500D02*
X73459966Y-75144500D01*
X73860031Y-75144500D02*
X75999966Y-75144500D01*
X76400031Y-75144500D02*
X78539966Y-75144500D01*
X78940031Y-75144500D02*
X81079966Y-75144500D01*
X81480031Y-75144500D02*
X86159966Y-75144500D01*
X86560031Y-75144500D02*
X88699966Y-75144500D01*
X89100031Y-75144500D02*
X91239966Y-75144500D01*
X91640031Y-75144500D02*
X93779966Y-75144500D01*
X94180031Y-75144500D02*
X95454542Y-75144500D01*
X97585455Y-75144500D02*
X98415000Y-75144500D01*
X36205000Y-75420000D02*
X98415000Y-75420000D01*
X98415001Y-75555000D02*
X98415001Y-75555000D01*
X98139501Y-28585000D02*
X98139501Y-75555000D01*
X97864001Y-28585000D02*
X97864001Y-29818082D01*
X97864001Y-31141919D02*
X97864001Y-72331004D01*
X97864001Y-74988997D02*
X97864001Y-75555000D01*
X97588501Y-28585000D02*
X97588501Y-29434251D01*
X97588501Y-31525749D02*
X97588501Y-72176424D01*
X97588501Y-75143577D02*
X97588501Y-75555000D01*
X97313001Y-28585000D02*
X97313001Y-29211845D01*
X97313001Y-31748156D02*
X97313001Y-72162363D01*
X97313001Y-75157637D02*
X97313001Y-75555000D01*
X97037501Y-28585000D02*
X97037501Y-29076180D01*
X97037501Y-31883821D02*
X97037501Y-72162363D01*
X97037501Y-75157637D02*
X97037501Y-75555000D01*
X96762001Y-28585000D02*
X96762001Y-29003849D01*
X96762001Y-31956152D02*
X96762001Y-72162363D01*
X96762001Y-75157637D02*
X96762001Y-75555000D01*
X96486501Y-28585000D02*
X96486501Y-28985000D01*
X96486501Y-31975000D02*
X96486501Y-72162363D01*
X96486501Y-75157637D02*
X96486501Y-75555000D01*
X96211001Y-28585000D02*
X96211001Y-29017174D01*
X96211001Y-31942825D02*
X96211001Y-72162363D01*
X96211001Y-75157637D02*
X96211001Y-75555000D01*
X95935501Y-28585000D02*
X95935501Y-29103930D01*
X95935501Y-31856069D02*
X95935501Y-72162363D01*
X95935501Y-75157637D02*
X95935501Y-75555000D01*
X95660001Y-28585000D02*
X95660001Y-29256611D01*
X95660001Y-31703388D02*
X95660001Y-72162363D01*
X95660001Y-75157637D02*
X95660001Y-75555000D01*
X95384501Y-28585000D02*
X95384501Y-29501249D01*
X95384501Y-31458751D02*
X95384501Y-72196746D01*
X95384501Y-75123253D02*
X95384501Y-75555000D01*
X95109001Y-28585000D02*
X95109001Y-29494751D01*
X95109001Y-31465249D02*
X95109001Y-72416326D01*
X95109001Y-74903673D02*
X95109001Y-75555000D01*
X94833501Y-28585000D02*
X94833501Y-29252270D01*
X94833501Y-31707731D02*
X94833501Y-72432271D01*
X94833501Y-74887730D02*
X94833501Y-75555000D01*
X94558001Y-28585000D02*
X94558001Y-29101240D01*
X94558001Y-31858761D02*
X94558001Y-72281240D01*
X94558001Y-75038761D02*
X94558001Y-75555000D01*
X94282501Y-28585000D02*
X94282501Y-29015883D01*
X94282501Y-31944118D02*
X94282501Y-72195883D01*
X94282501Y-75124118D02*
X94282501Y-75555000D01*
X94007001Y-28585000D02*
X94007001Y-28985000D01*
X94007001Y-31975000D02*
X94007001Y-72165000D01*
X94007001Y-75155000D02*
X94007001Y-75555000D01*
X93731501Y-28585000D02*
X93731501Y-29005140D01*
X93731501Y-31954859D02*
X93731501Y-72185140D01*
X93731501Y-75134859D02*
X93731501Y-75555000D01*
X93456001Y-28585000D02*
X93456001Y-29078870D01*
X93456001Y-31881129D02*
X93456001Y-72258870D01*
X93456001Y-75061129D02*
X93456001Y-75555000D01*
X93180501Y-28585000D02*
X93180501Y-29216186D01*
X93180501Y-31743813D02*
X93180501Y-72396185D01*
X93180501Y-74923814D02*
X93180501Y-75555000D01*
X92905001Y-28585000D02*
X92905001Y-29440749D01*
X92905001Y-31519251D02*
X92905001Y-72620748D01*
X92905001Y-74699252D02*
X92905001Y-75555000D01*
X92629501Y-28585000D02*
X92629501Y-29569285D01*
X92629501Y-31390716D02*
X92629501Y-72749286D01*
X92629501Y-74570715D02*
X92629501Y-75555000D01*
X92354001Y-28585000D02*
X92354001Y-29292695D01*
X92354001Y-31667306D02*
X92354001Y-72472695D01*
X92354001Y-74847306D02*
X92354001Y-75555000D01*
X92078501Y-28585000D02*
X92078501Y-29126300D01*
X92078501Y-31833701D02*
X92078501Y-72306300D01*
X92078501Y-75013701D02*
X92078501Y-75555000D01*
X91803001Y-28585000D02*
X91803001Y-29027917D01*
X91803001Y-31932084D02*
X91803001Y-72207917D01*
X91803001Y-75112084D02*
X91803001Y-75555000D01*
X91527501Y-28585000D02*
X91527501Y-28985000D01*
X91527501Y-31975000D02*
X91527501Y-72165000D01*
X91527501Y-75155000D02*
X91527501Y-75555000D01*
X91252001Y-28585000D02*
X91252001Y-28993106D01*
X91252001Y-31966893D02*
X91252001Y-72173106D01*
X91252001Y-75146893D02*
X91252001Y-75555000D01*
X90976501Y-28585000D02*
X90976501Y-29053810D01*
X90976501Y-31906189D02*
X90976501Y-72233810D01*
X90976501Y-75086189D02*
X90976501Y-75555000D01*
X90701001Y-28585000D02*
X90701001Y-29175761D01*
X90701001Y-31784238D02*
X90701001Y-72355761D01*
X90701001Y-74964238D02*
X90701001Y-75555000D01*
X90425501Y-28585000D02*
X90425501Y-29380249D01*
X90425501Y-31579751D02*
X90425501Y-72560248D01*
X90425501Y-74759752D02*
X90425501Y-75555000D01*
X90150001Y-28585000D02*
X90150001Y-29659830D01*
X90150001Y-31300171D02*
X90150001Y-72839831D01*
X90150001Y-74480170D02*
X90150001Y-75555000D01*
X89874501Y-28585000D02*
X89874501Y-29340251D01*
X89874501Y-31619749D02*
X89874501Y-72520252D01*
X89874501Y-74799748D02*
X89874501Y-75555000D01*
X89599001Y-28585000D02*
X89599001Y-29151360D01*
X89599001Y-31808641D02*
X89599001Y-72331360D01*
X89599001Y-74988641D02*
X89599001Y-75555000D01*
X89323501Y-28585000D02*
X89323501Y-29039951D01*
X89323501Y-31920050D02*
X89323501Y-72219951D01*
X89323501Y-75100050D02*
X89323501Y-75555000D01*
X89048001Y-28585000D02*
X89048001Y-28985151D01*
X89048001Y-31974850D02*
X89048001Y-72165151D01*
X89048001Y-75154850D02*
X89048001Y-75555000D01*
X88772501Y-28585000D02*
X88772501Y-28985000D01*
X88772501Y-31975000D02*
X88772501Y-72165000D01*
X88772501Y-75155000D02*
X88772501Y-75555000D01*
X88497001Y-28585000D02*
X88497001Y-29035872D01*
X88497001Y-31924127D02*
X88497001Y-72215872D01*
X88497001Y-75104127D02*
X88497001Y-75555000D01*
X88221501Y-28585000D02*
X88221501Y-29142866D01*
X88221501Y-31817133D02*
X88221501Y-72322866D01*
X88221501Y-74997133D02*
X88221501Y-75555000D01*
X87946001Y-28585000D02*
X87946001Y-29319749D01*
X87946001Y-31640251D02*
X87946001Y-72499748D01*
X87946001Y-74820252D02*
X87946001Y-75555000D01*
X87670501Y-28585000D02*
X87670501Y-29629145D01*
X87670501Y-31330854D02*
X87670501Y-72809144D01*
X87670501Y-74510855D02*
X87670501Y-75555000D01*
X87395001Y-28585000D02*
X87395001Y-29400751D01*
X87395001Y-31559249D02*
X87395001Y-72580752D01*
X87395001Y-74739248D02*
X87395001Y-75555000D01*
X87119501Y-28585000D02*
X87119501Y-29189461D01*
X87119501Y-31770540D02*
X87119501Y-72369462D01*
X87119501Y-74950539D02*
X87119501Y-75555000D01*
X86844001Y-28585000D02*
X86844001Y-29062304D01*
X86844001Y-31897697D02*
X86844001Y-72242304D01*
X86844001Y-75077697D02*
X86844001Y-75555000D01*
X86568501Y-28585000D02*
X86568501Y-28997185D01*
X86568501Y-31962816D02*
X86568501Y-72177185D01*
X86568501Y-75142816D02*
X86568501Y-75555000D01*
X86293001Y-28585000D02*
X86293001Y-28985000D01*
X86293001Y-31975000D02*
X86293001Y-72165000D01*
X86293001Y-75155000D02*
X86293001Y-75555000D01*
X86017501Y-28585000D02*
X86017501Y-29023838D01*
X86017501Y-31936161D02*
X86017501Y-72203838D01*
X86017501Y-75116161D02*
X86017501Y-75555000D01*
X85742001Y-28585000D02*
X85742001Y-29117807D01*
X85742001Y-31842192D02*
X85742001Y-72297806D01*
X85742001Y-75022193D02*
X85742001Y-75555000D01*
X85466501Y-28585000D02*
X85466501Y-29278995D01*
X85466501Y-31681004D02*
X85466501Y-72458994D01*
X85466501Y-74861005D02*
X85466501Y-75555000D01*
X85191001Y-28585000D02*
X85191001Y-29538600D01*
X85191001Y-31421399D02*
X85191001Y-72718599D01*
X85191001Y-74601400D02*
X85191001Y-75555000D01*
X84915501Y-28585000D02*
X84915501Y-29461251D01*
X84915501Y-31498749D02*
X84915501Y-72823397D01*
X84915501Y-74496604D02*
X84915501Y-75555000D01*
X84640001Y-28585000D02*
X84640001Y-29229886D01*
X84640001Y-31730115D02*
X84640001Y-72523337D01*
X84640001Y-72832927D02*
X84640001Y-72847069D01*
X84640001Y-74472931D02*
X84640001Y-74487073D01*
X84640001Y-74796664D02*
X84640001Y-75555000D01*
X84364501Y-28585000D02*
X84364501Y-29087364D01*
X84364501Y-31872637D02*
X84364501Y-72371965D01*
X84364501Y-73108427D02*
X84364501Y-73122569D01*
X84364501Y-74197431D02*
X84364501Y-74211573D01*
X84364501Y-74946627D02*
X84364501Y-75555000D01*
X84089001Y-28585000D02*
X84089001Y-29009219D01*
X84089001Y-31950782D02*
X84089001Y-72288634D01*
X84089001Y-73383927D02*
X84089001Y-73398069D01*
X84089001Y-73921931D02*
X84089001Y-73936073D01*
X84089001Y-75031847D02*
X84089001Y-75555000D01*
X83813501Y-28585000D02*
X83813501Y-28985000D01*
X83813501Y-31975000D02*
X83813501Y-72262678D01*
X83813501Y-73646431D02*
X83813501Y-73660000D01*
X83813501Y-73660000D02*
X83813501Y-73673569D01*
X83813501Y-75058135D02*
X83813501Y-75555000D01*
X83538001Y-28585000D02*
X83538001Y-29011804D01*
X83538001Y-31948195D02*
X83538001Y-72291594D01*
X83538001Y-73370931D02*
X83538001Y-73385073D01*
X83538001Y-73934927D02*
X83538001Y-73949069D01*
X83538001Y-75029616D02*
X83538001Y-75555000D01*
X83262501Y-28585000D02*
X83262501Y-29092747D01*
X83262501Y-31867252D02*
X83262501Y-72379734D01*
X83262501Y-73095431D02*
X83262501Y-73109573D01*
X83262501Y-74210427D02*
X83262501Y-74224569D01*
X83262501Y-74943580D02*
X83262501Y-75555000D01*
X82987001Y-28585000D02*
X82987001Y-29238570D01*
X82987001Y-31721429D02*
X82987001Y-72555559D01*
X82987001Y-72819931D02*
X82987001Y-72834073D01*
X82987001Y-74485927D02*
X82987001Y-74500069D01*
X82987001Y-74764440D02*
X82987001Y-75555000D01*
X82711501Y-28585000D02*
X82711501Y-29474249D01*
X82711501Y-31485751D02*
X82711501Y-72743950D01*
X82711501Y-72743950D02*
X82711501Y-72828638D01*
X82711501Y-74491361D02*
X82711501Y-74576050D01*
X82711501Y-74576050D02*
X82711501Y-75555000D01*
X82436001Y-28585000D02*
X82436001Y-29521751D01*
X82436001Y-31438249D02*
X82436001Y-72701752D01*
X82436001Y-74618248D02*
X82436001Y-75555000D01*
X82160501Y-28585000D02*
X82160501Y-29270311D01*
X82160501Y-31689690D02*
X82160501Y-72450311D01*
X82160501Y-74869690D02*
X82160501Y-75555000D01*
X81885001Y-28585000D02*
X81885001Y-29112424D01*
X81885001Y-31847577D02*
X81885001Y-72292424D01*
X81885001Y-75027577D02*
X81885001Y-75555000D01*
X81609501Y-28585000D02*
X81609501Y-29021253D01*
X81609501Y-31938748D02*
X81609501Y-72201254D01*
X81609501Y-75118747D02*
X81609501Y-75555000D01*
X81334001Y-28585000D02*
X81334001Y-28985000D01*
X81334001Y-31975000D02*
X81334001Y-72165000D01*
X81334001Y-75155000D02*
X81334001Y-75555000D01*
X81058501Y-28585000D02*
X81058501Y-28999770D01*
X81058501Y-31960229D02*
X81058501Y-72179769D01*
X81058501Y-75140230D02*
X81058501Y-75555000D01*
X80783001Y-28585000D02*
X80783001Y-29067687D01*
X80783001Y-31892312D02*
X80783001Y-72247686D01*
X80783001Y-75072313D02*
X80783001Y-75555000D01*
X80507501Y-28585000D02*
X80507501Y-29198145D01*
X80507501Y-31761854D02*
X80507501Y-72378145D01*
X80507501Y-74941854D02*
X80507501Y-75555000D01*
X80232001Y-28585000D02*
X80232001Y-29413749D01*
X80232001Y-31546251D02*
X80232001Y-43017678D01*
X80232001Y-43342323D02*
X80232001Y-57412779D01*
X80232001Y-59427222D02*
X80232001Y-72593748D01*
X80232001Y-74726252D02*
X80232001Y-75555000D01*
X79956501Y-28585000D02*
X79956501Y-29609693D01*
X79956501Y-31350308D02*
X79956501Y-42309693D01*
X79956501Y-44050308D02*
X79956501Y-56994479D01*
X79956501Y-59845522D02*
X79956501Y-72789695D01*
X79956501Y-74530306D02*
X79956501Y-75555000D01*
X79681001Y-28585000D02*
X79681001Y-29310735D01*
X79681001Y-31649266D02*
X79681001Y-42010735D01*
X79681001Y-44349266D02*
X79681001Y-56922363D01*
X79681001Y-59917637D02*
X79681001Y-72490736D01*
X79681001Y-74829265D02*
X79681001Y-75555000D01*
X79405501Y-28585000D02*
X79405501Y-29137484D01*
X79405501Y-31822517D02*
X79405501Y-36883665D01*
X79405501Y-44522517D02*
X79405501Y-56922363D01*
X79405501Y-59917637D02*
X79405501Y-72317484D01*
X79405501Y-75002517D02*
X79405501Y-75555000D01*
X79130001Y-28585000D02*
X79130001Y-29033288D01*
X79130001Y-31926713D02*
X79130001Y-36491123D01*
X79130001Y-44626713D02*
X79130001Y-56922363D01*
X79130001Y-59917637D02*
X79130001Y-72213288D01*
X79130001Y-75106713D02*
X79130001Y-75555000D01*
X78854501Y-28585000D02*
X78854501Y-28985000D01*
X78854501Y-31975000D02*
X78854501Y-36215623D01*
X78854501Y-44675000D02*
X78854501Y-56922363D01*
X78854501Y-59917637D02*
X78854501Y-72165000D01*
X78854501Y-75155000D02*
X78854501Y-75555000D01*
X78579001Y-28585000D02*
X78579001Y-28987735D01*
X78579001Y-31972264D02*
X78579001Y-35940123D01*
X78579001Y-44672264D02*
X78579001Y-56922363D01*
X78579001Y-59917637D02*
X78579001Y-72167735D01*
X78579001Y-75152264D02*
X78579001Y-75555000D01*
X78303501Y-28585000D02*
X78303501Y-29042627D01*
X78303501Y-31917372D02*
X78303501Y-35664623D01*
X78303501Y-44617372D02*
X78303501Y-56922363D01*
X78303501Y-59917637D02*
X78303501Y-72222626D01*
X78303501Y-75097373D02*
X78303501Y-75555000D01*
X78028001Y-28585000D02*
X78028001Y-29157721D01*
X78028001Y-31802278D02*
X78028001Y-35389123D01*
X78028001Y-37354879D02*
X78028001Y-41857721D01*
X78028001Y-44502278D02*
X78028001Y-56922363D01*
X78028001Y-59917637D02*
X78028001Y-72337720D01*
X78028001Y-74982279D02*
X78028001Y-75555000D01*
X77752501Y-28585000D02*
X77752501Y-29353249D01*
X77752501Y-31606751D02*
X77752501Y-35113623D01*
X77752501Y-37079379D02*
X77752501Y-42053249D01*
X77752501Y-44306751D02*
X77752501Y-56926056D01*
X77752501Y-59913943D02*
X77752501Y-72533248D01*
X77752501Y-74786752D02*
X77752501Y-75555000D01*
X77477001Y-28585000D02*
X77477001Y-29679282D01*
X77477001Y-31280717D02*
X77477001Y-34838123D01*
X77477001Y-36803879D02*
X77477001Y-42379282D01*
X77477001Y-43980717D02*
X77477001Y-57021835D01*
X77477001Y-59818164D02*
X77477001Y-72859280D01*
X77477001Y-74460719D02*
X77477001Y-75555000D01*
X77201501Y-28585000D02*
X77201501Y-29367251D01*
X77201501Y-31592749D02*
X77201501Y-34562623D01*
X77201501Y-36528379D02*
X77201501Y-42067251D01*
X77201501Y-44292749D02*
X77201501Y-57307251D01*
X77201501Y-59532749D02*
X77201501Y-72547252D01*
X77201501Y-74772748D02*
X77201501Y-75555000D01*
X76926001Y-28585000D02*
X76926001Y-29167077D01*
X76926001Y-31792924D02*
X76926001Y-34287123D01*
X76926001Y-36252879D02*
X76926001Y-41867077D01*
X76926001Y-44492924D02*
X76926001Y-57107077D01*
X76926001Y-59732924D02*
X76926001Y-72347078D01*
X76926001Y-74972923D02*
X76926001Y-75555000D01*
X76650501Y-28585000D02*
X76650501Y-29048428D01*
X76650501Y-35977379D02*
X76650501Y-41748428D01*
X76650501Y-44611573D02*
X76650501Y-56988428D01*
X76650501Y-59851573D02*
X76650501Y-72228428D01*
X76650501Y-75091573D02*
X76650501Y-75555000D01*
X76375001Y-28585000D02*
X76375001Y-28990522D01*
X76375001Y-35701879D02*
X76375001Y-41690522D01*
X76375001Y-44669479D02*
X76375001Y-56930522D01*
X76375001Y-59909479D02*
X76375001Y-72170522D01*
X76375001Y-75149479D02*
X76375001Y-75555000D01*
X76099501Y-28585000D02*
X76099501Y-28985000D01*
X76099501Y-35426379D02*
X76099501Y-41685000D01*
X76099501Y-44675000D02*
X76099501Y-56925000D01*
X76099501Y-59915000D02*
X76099501Y-72165000D01*
X76099501Y-75155000D02*
X76099501Y-75555000D01*
X75824001Y-28585000D02*
X75824001Y-29030501D01*
X75824001Y-35150879D02*
X75824001Y-41730501D01*
X75824001Y-44629498D02*
X75824001Y-56970501D01*
X75824001Y-59869498D02*
X75824001Y-72210501D01*
X75824001Y-75109498D02*
X75824001Y-75555000D01*
X75548501Y-28585000D02*
X75548501Y-29131683D01*
X75548501Y-34790492D02*
X75548501Y-41831683D01*
X75548501Y-44528316D02*
X75548501Y-57071683D01*
X75548501Y-59768316D02*
X75548501Y-72311682D01*
X75548501Y-75008317D02*
X75548501Y-75555000D01*
X75273001Y-28585000D02*
X75273001Y-29301379D01*
X75273001Y-31658620D02*
X75273001Y-42001379D01*
X75273001Y-44358620D02*
X75273001Y-57241379D01*
X75273001Y-59598620D02*
X75273001Y-72481378D01*
X75273001Y-74838621D02*
X75273001Y-75555000D01*
X74997501Y-28585000D02*
X74997501Y-29588737D01*
X74997501Y-31371262D02*
X74997501Y-42288737D01*
X74997501Y-44071262D02*
X74997501Y-57528737D01*
X74997501Y-59311262D02*
X74997501Y-72768735D01*
X74997501Y-74551264D02*
X74997501Y-75555000D01*
X74722001Y-28585000D02*
X74722001Y-29427751D01*
X74722001Y-31532249D02*
X74722001Y-42127751D01*
X74722001Y-44232249D02*
X74722001Y-57367751D01*
X74722001Y-59472249D02*
X74722001Y-72607752D01*
X74722001Y-74712248D02*
X74722001Y-75555000D01*
X74446501Y-28585000D02*
X74446501Y-29207502D01*
X74446501Y-31752499D02*
X74446501Y-41907502D01*
X74446501Y-44452499D02*
X74446501Y-57147502D01*
X74446501Y-59692499D02*
X74446501Y-72387503D01*
X74446501Y-74932498D02*
X74446501Y-75555000D01*
X74171001Y-28585000D02*
X74171001Y-29073487D01*
X74171001Y-31886514D02*
X74171001Y-41773487D01*
X74171001Y-44586514D02*
X74171001Y-57013487D01*
X74171001Y-59826514D02*
X74171001Y-72253488D01*
X74171001Y-75066513D02*
X74171001Y-75555000D01*
X73895501Y-28585000D02*
X73895501Y-29002556D01*
X73895501Y-31957445D02*
X73895501Y-41702556D01*
X73895501Y-44657445D02*
X73895501Y-56942556D01*
X73895501Y-59897445D02*
X73895501Y-72182556D01*
X73895501Y-75137445D02*
X73895501Y-75555000D01*
X73620001Y-28585000D02*
X73620001Y-28985000D01*
X73620001Y-31975000D02*
X73620001Y-41685000D01*
X73620001Y-44675000D02*
X73620001Y-56925000D01*
X73620001Y-59915000D02*
X73620001Y-72165000D01*
X73620001Y-75155000D02*
X73620001Y-75555000D01*
X73344501Y-28585000D02*
X73344501Y-29018467D01*
X73344501Y-31941532D02*
X73344501Y-41718467D01*
X73344501Y-44641532D02*
X73344501Y-56958467D01*
X73344501Y-59881532D02*
X73344501Y-72198467D01*
X73344501Y-75121532D02*
X73344501Y-75555000D01*
X73069001Y-28585000D02*
X73069001Y-29106623D01*
X73069001Y-31853376D02*
X73069001Y-41806623D01*
X73069001Y-44553376D02*
X73069001Y-57046623D01*
X73069001Y-59793376D02*
X73069001Y-72286622D01*
X73069001Y-75033377D02*
X73069001Y-75555000D01*
X72793501Y-28585000D02*
X72793501Y-29260954D01*
X72793501Y-31699045D02*
X72793501Y-41960954D01*
X72793501Y-44399045D02*
X72793501Y-57200954D01*
X72793501Y-59639045D02*
X72793501Y-72440953D01*
X72793501Y-74879046D02*
X72793501Y-75555000D01*
X72518001Y-28585000D02*
X72518001Y-29507749D01*
X72518001Y-31452251D02*
X72518001Y-42207749D01*
X72518001Y-44152251D02*
X72518001Y-57447749D01*
X72518001Y-59392251D02*
X72518001Y-72687748D01*
X72518001Y-74632252D02*
X72518001Y-75555000D01*
X72242501Y-28585000D02*
X72242501Y-29488251D01*
X72242501Y-31471749D02*
X72242501Y-42188251D01*
X72242501Y-44171749D02*
X72242501Y-57428251D01*
X72242501Y-59411749D02*
X72242501Y-72668252D01*
X72242501Y-74651748D02*
X72242501Y-75555000D01*
X71967001Y-28585000D02*
X71967001Y-29247927D01*
X71967001Y-31712074D02*
X71967001Y-41947927D01*
X71967001Y-44412074D02*
X71967001Y-57187927D01*
X71967001Y-59652074D02*
X71967001Y-72427927D01*
X71967001Y-74892074D02*
X71967001Y-75555000D01*
X71691501Y-28585000D02*
X71691501Y-29098547D01*
X71691501Y-31861454D02*
X71691501Y-41798547D01*
X71691501Y-44561454D02*
X71691501Y-57038547D01*
X71691501Y-59801454D02*
X71691501Y-72278548D01*
X71691501Y-75041453D02*
X71691501Y-75555000D01*
X71416001Y-28585000D02*
X71416001Y-29014590D01*
X71416001Y-31945411D02*
X71416001Y-41714590D01*
X71416001Y-44645411D02*
X71416001Y-56954590D01*
X71416001Y-59885411D02*
X71416001Y-72194590D01*
X71416001Y-75125411D02*
X71416001Y-75555000D01*
X71140501Y-28585000D02*
X71140501Y-28985000D01*
X71140501Y-31975000D02*
X71140501Y-41685000D01*
X71140501Y-44675000D02*
X71140501Y-56925000D01*
X71140501Y-59915000D02*
X71140501Y-72165000D01*
X71140501Y-75155000D02*
X71140501Y-75555000D01*
X70865001Y-28585000D02*
X70865001Y-29006433D01*
X70865001Y-31953566D02*
X70865001Y-41706433D01*
X70865001Y-44653566D02*
X70865001Y-56946433D01*
X70865001Y-59893566D02*
X70865001Y-72186433D01*
X70865001Y-75133566D02*
X70865001Y-75555000D01*
X70589501Y-28585000D02*
X70589501Y-29081563D01*
X70589501Y-31878436D02*
X70589501Y-41781563D01*
X70589501Y-44578436D02*
X70589501Y-57021563D01*
X70589501Y-59818436D02*
X70589501Y-72261562D01*
X70589501Y-75058437D02*
X70589501Y-75555000D01*
X70314001Y-28585000D02*
X70314001Y-29220529D01*
X70314001Y-31739470D02*
X70314001Y-41920529D01*
X70314001Y-44439470D02*
X70314001Y-57160529D01*
X70314001Y-59679470D02*
X70314001Y-72400529D01*
X70314001Y-74919470D02*
X70314001Y-75555000D01*
X70038501Y-28585000D02*
X70038501Y-29447249D01*
X70038501Y-31512751D02*
X70038501Y-42147249D01*
X70038501Y-44212751D02*
X70038501Y-57387249D01*
X70038501Y-59452751D02*
X70038501Y-72627248D01*
X70038501Y-74692752D02*
X70038501Y-75555000D01*
X69763001Y-28585000D02*
X69763001Y-29559557D01*
X69763001Y-31400444D02*
X69763001Y-42259557D01*
X69763001Y-44100444D02*
X69763001Y-57499557D01*
X69763001Y-59340444D02*
X69763001Y-72739558D01*
X69763001Y-74580443D02*
X69763001Y-75555000D01*
X69487501Y-28585000D02*
X69487501Y-29288351D01*
X69487501Y-31671650D02*
X69487501Y-41988351D01*
X69487501Y-44371650D02*
X69487501Y-57228351D01*
X69487501Y-59611650D02*
X69487501Y-72468352D01*
X69487501Y-74851649D02*
X69487501Y-75555000D01*
X69212001Y-28585000D02*
X69212001Y-29123607D01*
X69212001Y-31836394D02*
X69212001Y-41823607D01*
X69212001Y-44536394D02*
X69212001Y-57063607D01*
X69212001Y-59776394D02*
X69212001Y-72303608D01*
X69212001Y-75016393D02*
X69212001Y-75555000D01*
X68936501Y-28585000D02*
X68936501Y-29026624D01*
X68936501Y-31933377D02*
X68936501Y-41726624D01*
X68936501Y-44633377D02*
X68936501Y-56966624D01*
X68936501Y-59873377D02*
X68936501Y-72206624D01*
X68936501Y-75113377D02*
X68936501Y-75555000D01*
X68661001Y-28585000D02*
X68661001Y-28985000D01*
X68661001Y-31975000D02*
X68661001Y-41685000D01*
X68661001Y-44675000D02*
X68661001Y-56925000D01*
X68661001Y-59915000D02*
X68661001Y-72165000D01*
X68661001Y-75155000D02*
X68661001Y-75555000D01*
X68385501Y-28585000D02*
X68385501Y-28994399D01*
X68385501Y-31965600D02*
X68385501Y-41694399D01*
X68385501Y-44665600D02*
X68385501Y-56934399D01*
X68385501Y-59905600D02*
X68385501Y-72174399D01*
X68385501Y-75145600D02*
X68385501Y-75555000D01*
X68110001Y-28585000D02*
X68110001Y-29056503D01*
X68110001Y-31903496D02*
X68110001Y-41756503D01*
X68110001Y-44603496D02*
X68110001Y-56996503D01*
X68110001Y-59843496D02*
X68110001Y-72236502D01*
X68110001Y-75083497D02*
X68110001Y-75555000D01*
X67834501Y-28585000D02*
X67834501Y-29180105D01*
X67834501Y-31779894D02*
X67834501Y-41880105D01*
X67834501Y-44479894D02*
X67834501Y-57120105D01*
X67834501Y-59719894D02*
X67834501Y-72360104D01*
X67834501Y-74959895D02*
X67834501Y-75555000D01*
X67559001Y-28585000D02*
X67559001Y-29386749D01*
X67559001Y-31573251D02*
X67559001Y-42086749D01*
X67559001Y-44273251D02*
X67559001Y-57326749D01*
X67559001Y-59513251D02*
X67559001Y-72566748D01*
X67559001Y-74753252D02*
X67559001Y-75555000D01*
X67283501Y-28585000D02*
X67283501Y-29650102D01*
X67283501Y-31309899D02*
X67283501Y-41768911D01*
X67283501Y-44591090D02*
X67283501Y-57590102D01*
X67283501Y-59249899D02*
X67283501Y-72830103D01*
X67283501Y-74489898D02*
X67283501Y-75555000D01*
X67008001Y-28585000D02*
X67008001Y-29333751D01*
X67008001Y-31626249D02*
X67008001Y-41684136D01*
X67008001Y-44675865D02*
X67008001Y-57273751D01*
X67008001Y-59566249D02*
X67008001Y-72513752D01*
X67008001Y-74806248D02*
X67008001Y-75555000D01*
X66732501Y-28585000D02*
X66732501Y-29148667D01*
X66732501Y-31811334D02*
X66732501Y-41682363D01*
X66732501Y-44677637D02*
X66732501Y-57088667D01*
X66732501Y-59751334D02*
X66732501Y-72328668D01*
X66732501Y-74991333D02*
X66732501Y-75555000D01*
X66457001Y-28585000D02*
X66457001Y-29038658D01*
X66457001Y-31921343D02*
X66457001Y-41682363D01*
X66457001Y-44677637D02*
X66457001Y-56978658D01*
X66457001Y-59861343D02*
X66457001Y-72218658D01*
X66457001Y-75101343D02*
X66457001Y-75555000D01*
X66181501Y-28585000D02*
X66181501Y-28985000D01*
X66181501Y-31975000D02*
X66181501Y-41682363D01*
X66181501Y-44677637D02*
X66181501Y-56925000D01*
X66181501Y-59915000D02*
X66181501Y-72165000D01*
X66181501Y-75155000D02*
X66181501Y-75555000D01*
X65906001Y-28585000D02*
X65906001Y-28985000D01*
X65906001Y-31975000D02*
X65906001Y-41682363D01*
X65906001Y-44677637D02*
X65906001Y-56925000D01*
X65906001Y-59915000D02*
X65906001Y-72165000D01*
X65906001Y-75155000D02*
X65906001Y-75555000D01*
X65630501Y-28585000D02*
X65630501Y-29037165D01*
X65630501Y-31922834D02*
X65630501Y-41682363D01*
X65630501Y-44677637D02*
X65630501Y-56977165D01*
X65630501Y-59862834D02*
X65630501Y-72217165D01*
X65630501Y-75102834D02*
X65630501Y-75555000D01*
X65355001Y-28585000D02*
X65355001Y-29145559D01*
X65355001Y-31814440D02*
X65355001Y-41682363D01*
X65355001Y-44677637D02*
X65355001Y-57085559D01*
X65355001Y-59754440D02*
X65355001Y-72325558D01*
X65355001Y-74994441D02*
X65355001Y-75555000D01*
X65079501Y-28585000D02*
X65079501Y-29326249D01*
X65079501Y-31633751D02*
X65079501Y-41683397D01*
X65079501Y-44676602D02*
X65079501Y-57266249D01*
X65079501Y-59573751D02*
X65079501Y-72506248D01*
X65079501Y-74813752D02*
X65079501Y-75555000D01*
X64804001Y-28585000D02*
X64804001Y-29638873D01*
X64804001Y-31321126D02*
X64804001Y-41764900D01*
X64804001Y-44595099D02*
X64804001Y-57578873D01*
X64804001Y-59261126D02*
X64804001Y-72818872D01*
X64804001Y-74501127D02*
X64804001Y-75555000D01*
X64528501Y-28585000D02*
X64528501Y-29394251D01*
X64528501Y-31565749D02*
X64528501Y-58272755D01*
X64528501Y-58272755D02*
X64528501Y-72574252D01*
X64528501Y-74745748D02*
X64528501Y-75555000D01*
X64253001Y-28585000D02*
X64253001Y-29185118D01*
X64253001Y-31774883D02*
X64253001Y-58272755D01*
X64253001Y-58272755D02*
X64253001Y-72365119D01*
X64253001Y-74954882D02*
X64253001Y-75555000D01*
X63977501Y-28585000D02*
X63977501Y-29059611D01*
X63977501Y-31900390D02*
X63977501Y-58272755D01*
X63977501Y-58272755D02*
X63977501Y-72239612D01*
X63977501Y-75080389D02*
X63977501Y-75555000D01*
X63702001Y-28585000D02*
X63702001Y-28995892D01*
X63702001Y-31964109D02*
X63702001Y-58272755D01*
X63702001Y-58272755D02*
X63702001Y-72175892D01*
X63702001Y-75144109D02*
X63702001Y-75555000D01*
X63426501Y-28585000D02*
X63426501Y-28985000D01*
X63426501Y-31975000D02*
X63426501Y-58272755D01*
X63426501Y-58272755D02*
X63426501Y-72165000D01*
X63426501Y-75155000D02*
X63426501Y-75555000D01*
X63151001Y-28585000D02*
X63151001Y-29025131D01*
X63151001Y-31934868D02*
X63151001Y-58272755D01*
X63151001Y-58272755D02*
X63151001Y-72205131D01*
X63151001Y-75114868D02*
X63151001Y-75555000D01*
X62875501Y-28585000D02*
X62875501Y-29120499D01*
X62875501Y-31839500D02*
X62875501Y-58272755D01*
X62875501Y-58272755D02*
X62875501Y-72300499D01*
X62875501Y-75019500D02*
X62875501Y-75555000D01*
X62600001Y-28585000D02*
X62600001Y-29283338D01*
X62600001Y-31676661D02*
X62600001Y-58272755D01*
X62600001Y-58272755D02*
X62600001Y-72463337D01*
X62600001Y-74856662D02*
X62600001Y-75555000D01*
X62324501Y-28585000D02*
X62324501Y-29548328D01*
X62324501Y-31411671D02*
X62324501Y-58272755D01*
X62324501Y-58272755D02*
X62324501Y-72728327D01*
X62324501Y-74591672D02*
X62324501Y-75555000D01*
X62049001Y-28585000D02*
X62049001Y-29454751D01*
X62049001Y-31505249D02*
X62049001Y-58272755D01*
X62049001Y-58272755D02*
X62049001Y-72820776D01*
X62049001Y-74499225D02*
X62049001Y-75555000D01*
X61773501Y-28585000D02*
X61773501Y-29225543D01*
X61773501Y-31734458D02*
X61773501Y-58272755D01*
X61773501Y-58272755D02*
X61773501Y-72519323D01*
X61773501Y-72839427D02*
X61773501Y-72853569D01*
X61773501Y-74466431D02*
X61773501Y-74480573D01*
X61773501Y-74801232D02*
X61773501Y-75555000D01*
X61498001Y-28585000D02*
X61498001Y-29084671D01*
X61498001Y-37523978D02*
X61498001Y-58272755D01*
X61498001Y-58272755D02*
X61498001Y-72369737D01*
X61498001Y-73114927D02*
X61498001Y-73129069D01*
X61498001Y-74190931D02*
X61498001Y-74205073D01*
X61498001Y-74949808D02*
X61498001Y-75555000D01*
X61222501Y-28585000D02*
X61222501Y-29007926D01*
X61222501Y-37804378D02*
X61222501Y-58272755D01*
X61222501Y-58272755D02*
X61222501Y-72287758D01*
X61222501Y-73390427D02*
X61222501Y-73404569D01*
X61222501Y-73915431D02*
X61222501Y-73929573D01*
X61222501Y-75033568D02*
X61222501Y-75555000D01*
X60947001Y-28585000D02*
X60947001Y-28985000D01*
X60947001Y-38079878D02*
X60947001Y-58272755D01*
X60947001Y-58272755D02*
X60947001Y-72263084D01*
X60947001Y-73639931D02*
X60947001Y-73654073D01*
X60947001Y-73665927D02*
X60947001Y-73680069D01*
X60947001Y-75058542D02*
X60947001Y-75555000D01*
X60671501Y-28585000D02*
X60671501Y-29013097D01*
X60671501Y-38355378D02*
X60671501Y-58272755D01*
X60671501Y-58272755D02*
X60671501Y-72293315D01*
X60671501Y-73364431D02*
X60671501Y-73378573D01*
X60671501Y-73941427D02*
X60671501Y-73955569D01*
X60671501Y-75028740D02*
X60671501Y-75555000D01*
X60396001Y-28585000D02*
X60396001Y-29095439D01*
X60396001Y-38630878D02*
X60396001Y-58272755D01*
X60396001Y-58272755D02*
X60396001Y-72382915D01*
X60396001Y-73088931D02*
X60396001Y-73103073D01*
X60396001Y-74216927D02*
X60396001Y-74231069D01*
X60396001Y-74941352D02*
X60396001Y-75555000D01*
X60120501Y-28585000D02*
X60120501Y-29242913D01*
X60120501Y-31717086D02*
X60120501Y-36940620D01*
X60120501Y-38906378D02*
X60120501Y-58272755D01*
X60120501Y-58272755D02*
X60120501Y-72571675D01*
X60120501Y-72813431D02*
X60120501Y-72827573D01*
X60120501Y-74492427D02*
X60120501Y-74506569D01*
X60120501Y-74748324D02*
X60120501Y-75555000D01*
X59845001Y-28585000D02*
X59845001Y-29480749D01*
X59845001Y-31479251D02*
X59845001Y-37216120D01*
X59845001Y-39181878D02*
X59845001Y-58272755D01*
X59845001Y-58272755D02*
X59845001Y-72743950D01*
X59845001Y-72743950D02*
X59845001Y-72831259D01*
X59845001Y-74488740D02*
X59845001Y-74576050D01*
X59845001Y-74576050D02*
X59845001Y-75555000D01*
X59569501Y-28585000D02*
X59569501Y-29515251D01*
X59569501Y-31444749D02*
X59569501Y-37491620D01*
X59569501Y-39457378D02*
X59569501Y-58272755D01*
X59569501Y-58272755D02*
X59569501Y-72695252D01*
X59569501Y-74624748D02*
X59569501Y-75555000D01*
X59294001Y-28585000D02*
X59294001Y-29265968D01*
X59294001Y-31694033D02*
X59294001Y-37767120D01*
X59294001Y-39732878D02*
X59294001Y-58272755D01*
X59294001Y-58272755D02*
X59294001Y-72445968D01*
X59294001Y-74874033D02*
X59294001Y-75555000D01*
X59018501Y-28585000D02*
X59018501Y-29109731D01*
X59018501Y-32358624D02*
X59018501Y-38042620D01*
X59018501Y-40008378D02*
X59018501Y-58272755D01*
X59018501Y-58272755D02*
X59018501Y-72289732D01*
X59018501Y-75030269D02*
X59018501Y-75555000D01*
X58743001Y-28585000D02*
X58743001Y-29019961D01*
X58743001Y-32663878D02*
X58743001Y-38318120D01*
X58743001Y-40283878D02*
X58743001Y-58272755D01*
X58743001Y-58272755D02*
X58743001Y-72199961D01*
X58743001Y-75120040D02*
X58743001Y-75555000D01*
X58467501Y-28585000D02*
X58467501Y-28985000D01*
X58467501Y-32939378D02*
X58467501Y-38593620D01*
X58467501Y-40559378D02*
X58467501Y-58272755D01*
X58467501Y-58272755D02*
X58467501Y-72165000D01*
X58467501Y-75155000D02*
X58467501Y-75555000D01*
X58192001Y-28585000D02*
X58192001Y-29001062D01*
X58192001Y-33214878D02*
X58192001Y-38869120D01*
X58192001Y-40834878D02*
X58192001Y-58272755D01*
X58192001Y-58272755D02*
X58192001Y-72181062D01*
X58192001Y-75138937D02*
X58192001Y-75555000D01*
X57916501Y-28585000D02*
X57916501Y-29070379D01*
X57916501Y-33490378D02*
X57916501Y-39144620D01*
X57916501Y-41110378D02*
X57916501Y-58272755D01*
X57916501Y-58272755D02*
X57916501Y-72250379D01*
X57916501Y-75069620D02*
X57916501Y-75555000D01*
X57641001Y-28585000D02*
X57641001Y-29202488D01*
X57641001Y-31757511D02*
X57641001Y-31800120D01*
X57641001Y-33765878D02*
X57641001Y-39420120D01*
X57641001Y-41385878D02*
X57641001Y-58272755D01*
X57641001Y-58272755D02*
X57641001Y-72382488D01*
X57641001Y-74937511D02*
X57641001Y-75555000D01*
X57365501Y-28585000D02*
X57365501Y-29420249D01*
X57365501Y-31539751D02*
X57365501Y-32075620D01*
X57365501Y-34041378D02*
X57365501Y-39695620D01*
X57365501Y-41661378D02*
X57365501Y-58272755D01*
X57365501Y-58272755D02*
X57365501Y-72600248D01*
X57365501Y-74719752D02*
X57365501Y-75555000D01*
X57090001Y-28585000D02*
X57090001Y-29599965D01*
X57090001Y-31360036D02*
X57090001Y-32351120D01*
X57090001Y-34316878D02*
X57090001Y-39971120D01*
X57090001Y-41870061D02*
X57090001Y-58272755D01*
X57090001Y-58272755D02*
X57090001Y-72779967D01*
X57090001Y-74540034D02*
X57090001Y-75555000D01*
X56814501Y-28585000D02*
X56814501Y-29306392D01*
X56814501Y-31653609D02*
X56814501Y-32626620D01*
X56814501Y-34592378D02*
X56814501Y-40246620D01*
X56814501Y-41927312D02*
X56814501Y-58272755D01*
X56814501Y-58272755D02*
X56814501Y-72486393D01*
X56814501Y-74833608D02*
X56814501Y-75555000D01*
X56539001Y-28585000D02*
X56539001Y-29134791D01*
X56539001Y-31825210D02*
X56539001Y-32902120D01*
X56539001Y-34867878D02*
X56539001Y-40522120D01*
X56539001Y-41924000D02*
X56539001Y-58272755D01*
X56539001Y-58272755D02*
X56539001Y-72314792D01*
X56539001Y-75005209D02*
X56539001Y-75555000D01*
X56263501Y-28585000D02*
X56263501Y-29031995D01*
X56263501Y-31928006D02*
X56263501Y-33177620D01*
X56263501Y-35143378D02*
X56263501Y-36512871D01*
X56263501Y-37147130D02*
X56263501Y-40534000D01*
X56263501Y-41924000D02*
X56263501Y-58272755D01*
X56263501Y-58272755D02*
X56263501Y-72211995D01*
X56263501Y-75108006D02*
X56263501Y-75555000D01*
X55988001Y-28585000D02*
X55988001Y-28985000D01*
X55988001Y-31975000D02*
X55988001Y-33453120D01*
X55988001Y-37550430D02*
X55988001Y-40534000D01*
X55988001Y-41924000D02*
X55988001Y-58272755D01*
X55988001Y-58272755D02*
X55988001Y-72165000D01*
X55988001Y-75155000D02*
X55988001Y-75555000D01*
X55712501Y-28585000D02*
X55712501Y-28989028D01*
X55712501Y-31970971D02*
X55712501Y-33728620D01*
X55712501Y-37711821D02*
X55712501Y-40534000D01*
X55712501Y-41924000D02*
X55712501Y-58272755D01*
X55712501Y-58272755D02*
X55712501Y-72169028D01*
X55712501Y-75150971D02*
X55712501Y-75555000D01*
X55437001Y-28585000D02*
X55437001Y-29045319D01*
X55437001Y-31914680D02*
X55437001Y-34004120D01*
X55437001Y-37775000D02*
X55437001Y-40534000D01*
X55437001Y-41924000D02*
X55437001Y-58272755D01*
X55437001Y-58272755D02*
X55437001Y-72225319D01*
X55437001Y-75094680D02*
X55437001Y-75555000D01*
X55161501Y-28585000D02*
X55161501Y-29162064D01*
X55161501Y-31797935D02*
X55161501Y-34279620D01*
X55161501Y-37751642D02*
X55161501Y-40534000D01*
X55161501Y-41924000D02*
X55161501Y-58272755D01*
X55161501Y-58272755D02*
X55161501Y-72342063D01*
X55161501Y-74977936D02*
X55161501Y-75555000D01*
X54886001Y-28585000D02*
X54886001Y-29359749D01*
X54886001Y-31600251D02*
X54886001Y-34551767D01*
X54886001Y-37641807D02*
X54886001Y-40503570D01*
X54886001Y-41954430D02*
X54886001Y-58272755D01*
X54886001Y-58272755D02*
X54886001Y-72539748D01*
X54886001Y-74780252D02*
X54886001Y-75555000D01*
X54610501Y-28585000D02*
X54610501Y-29689010D01*
X54610501Y-31270989D02*
X54610501Y-36268709D01*
X54610501Y-37391290D02*
X54610501Y-40345109D01*
X54610501Y-42112892D02*
X54610501Y-58272755D01*
X54610501Y-58272755D02*
X54610501Y-72869008D01*
X54610501Y-74450991D02*
X54610501Y-75555000D01*
X54335001Y-28585000D02*
X54335001Y-29360751D01*
X54335001Y-31599249D02*
X54335001Y-40284000D01*
X54335001Y-42174000D02*
X54335001Y-58272755D01*
X54335001Y-58272755D02*
X54335001Y-72540752D01*
X54335001Y-74779248D02*
X54335001Y-75555000D01*
X54059501Y-28585000D02*
X54059501Y-29162734D01*
X54059501Y-31797267D02*
X54059501Y-40308351D01*
X54059501Y-42149648D02*
X54059501Y-58272755D01*
X54059501Y-58272755D02*
X54059501Y-72342735D01*
X54059501Y-74977266D02*
X54059501Y-75555000D01*
X53784001Y-28585000D02*
X53784001Y-29045735D01*
X53784001Y-31914266D02*
X53784001Y-40420533D01*
X53784001Y-42037466D02*
X53784001Y-58272755D01*
X53784001Y-58272755D02*
X53784001Y-72225736D01*
X53784001Y-75094265D02*
X53784001Y-75555000D01*
X53508501Y-28585000D02*
X53508501Y-28989229D01*
X53508501Y-31970772D02*
X53508501Y-40675192D01*
X53508501Y-41782807D02*
X53508501Y-58272755D01*
X53508501Y-58272755D02*
X53508501Y-72169229D01*
X53508501Y-75150772D02*
X53508501Y-75555000D01*
X53233001Y-28585000D02*
X53233001Y-28985000D01*
X53233001Y-31975000D02*
X53233001Y-58272755D01*
X53233001Y-58272755D02*
X53233001Y-72165000D01*
X53233001Y-75155000D02*
X53233001Y-75555000D01*
X52957501Y-28585000D02*
X52957501Y-29031794D01*
X52957501Y-31928205D02*
X52957501Y-58272755D01*
X52957501Y-58272755D02*
X52957501Y-72211794D01*
X52957501Y-75108205D02*
X52957501Y-75555000D01*
X52682001Y-28585000D02*
X52682001Y-29134375D01*
X52682001Y-31825624D02*
X52682001Y-58272755D01*
X52682001Y-58272755D02*
X52682001Y-72314375D01*
X52682001Y-75005624D02*
X52682001Y-75555000D01*
X52406501Y-28585000D02*
X52406501Y-29305722D01*
X52406501Y-31654277D02*
X52406501Y-58272755D01*
X52406501Y-58272755D02*
X52406501Y-72485721D01*
X52406501Y-74834278D02*
X52406501Y-75555000D01*
X52131001Y-28585000D02*
X52131001Y-29598465D01*
X52131001Y-31361534D02*
X52131001Y-58272755D01*
X52131001Y-58272755D02*
X52131001Y-72778463D01*
X52131001Y-74541536D02*
X52131001Y-75555000D01*
X51855501Y-28585000D02*
X51855501Y-29421251D01*
X51855501Y-31538749D02*
X51855501Y-58272755D01*
X51855501Y-58272755D02*
X51855501Y-72601252D01*
X51855501Y-74718748D02*
X51855501Y-75555000D01*
X51580001Y-28585000D02*
X51580001Y-29203159D01*
X51580001Y-31756842D02*
X51580001Y-58272755D01*
X51580001Y-58272755D02*
X51580001Y-72383160D01*
X51580001Y-74936841D02*
X51580001Y-75555000D01*
X51304501Y-28585000D02*
X51304501Y-29070795D01*
X51304501Y-31889206D02*
X51304501Y-58272755D01*
X51304501Y-58272755D02*
X51304501Y-72250795D01*
X51304501Y-75069206D02*
X51304501Y-75555000D01*
X51029001Y-28585000D02*
X51029001Y-29001263D01*
X51029001Y-31958738D02*
X51029001Y-58272755D01*
X51029001Y-58272755D02*
X51029001Y-72181263D01*
X51029001Y-75138738D02*
X51029001Y-75555000D01*
X50753501Y-28585000D02*
X50753501Y-28985000D01*
X50753501Y-31975000D02*
X50753501Y-58272755D01*
X50753501Y-58272755D02*
X50753501Y-72165000D01*
X50753501Y-75155000D02*
X50753501Y-75555000D01*
X50478001Y-28585000D02*
X50478001Y-29019760D01*
X50478001Y-31940239D02*
X50478001Y-58272755D01*
X50478001Y-58272755D02*
X50478001Y-72199760D01*
X50478001Y-75120239D02*
X50478001Y-75555000D01*
X50202501Y-28585000D02*
X50202501Y-29109315D01*
X50202501Y-31850684D02*
X50202501Y-58272755D01*
X50202501Y-58272755D02*
X50202501Y-72289315D01*
X50202501Y-75030684D02*
X50202501Y-75555000D01*
X49927001Y-28585000D02*
X49927001Y-29265297D01*
X49927001Y-31694702D02*
X49927001Y-58272755D01*
X49927001Y-58272755D02*
X49927001Y-72445296D01*
X49927001Y-74874703D02*
X49927001Y-75555000D01*
X49651501Y-28585000D02*
X49651501Y-29208882D01*
X49651501Y-31751119D02*
X49651501Y-54608882D01*
X49651501Y-57151119D02*
X49651501Y-58272755D01*
X49651501Y-58272755D02*
X49651501Y-58320445D01*
X49651501Y-58539510D02*
X49651501Y-72694248D01*
X49651501Y-74625752D02*
X49651501Y-75555000D01*
X49376001Y-28585000D02*
X49376001Y-29010833D01*
X49376001Y-31949168D02*
X49376001Y-54410833D01*
X49376001Y-57349168D02*
X49376001Y-57591665D01*
X49376001Y-59248336D02*
X49376001Y-72661752D01*
X49376001Y-74658248D02*
X49376001Y-75555000D01*
X49100501Y-28585000D02*
X49100501Y-28982363D01*
X49100501Y-31977637D02*
X49100501Y-54382363D01*
X49100501Y-57572428D02*
X49100501Y-57586570D01*
X49100501Y-59253430D02*
X49100501Y-59267572D01*
X49100501Y-59505838D02*
X49100501Y-72423584D01*
X49100501Y-74896417D02*
X49100501Y-75555000D01*
X48825001Y-28585000D02*
X48825001Y-28982363D01*
X48825001Y-31977637D02*
X48825001Y-54382363D01*
X48825001Y-57847928D02*
X48825001Y-57862070D01*
X48825001Y-58977930D02*
X48825001Y-58992072D01*
X48825001Y-59696594D02*
X48825001Y-72275855D01*
X48825001Y-75044146D02*
X48825001Y-75555000D01*
X48549501Y-28585000D02*
X48549501Y-28982363D01*
X48549501Y-31977637D02*
X48549501Y-54382363D01*
X48549501Y-58123428D02*
X48549501Y-58137570D01*
X48549501Y-58702430D02*
X48549501Y-58716572D01*
X48549501Y-59786419D02*
X48549501Y-72193297D01*
X48549501Y-75126704D02*
X48549501Y-75555000D01*
X48274001Y-28585000D02*
X48274001Y-28982363D01*
X48274001Y-31977637D02*
X48274001Y-54382363D01*
X48274001Y-58398928D02*
X48274001Y-58413070D01*
X48274001Y-58426930D02*
X48274001Y-58441072D01*
X48274001Y-59816853D02*
X48274001Y-72165000D01*
X48274001Y-75155000D02*
X48274001Y-75555000D01*
X47998501Y-28585000D02*
X47998501Y-28982363D01*
X47998501Y-31977637D02*
X47998501Y-54382363D01*
X47998501Y-58151430D02*
X47998501Y-58165572D01*
X47998501Y-58674428D02*
X47998501Y-58688570D01*
X47998501Y-59792377D02*
X47998501Y-72187726D01*
X47998501Y-75132273D02*
X47998501Y-75555000D01*
X47723001Y-28585000D02*
X47723001Y-28982363D01*
X47723001Y-31977637D02*
X47723001Y-54382363D01*
X47723001Y-57875930D02*
X47723001Y-57890072D01*
X47723001Y-58949928D02*
X47723001Y-58964070D01*
X47723001Y-59710607D02*
X47723001Y-72264255D01*
X47723001Y-75055744D02*
X47723001Y-75555000D01*
X47447501Y-28585000D02*
X47447501Y-28982363D01*
X47447501Y-31977637D02*
X47447501Y-54382363D01*
X47447501Y-57600430D02*
X47447501Y-57614572D01*
X47447501Y-59225428D02*
X47447501Y-59239570D01*
X47447501Y-59561260D02*
X47447501Y-72404872D01*
X47447501Y-74915127D02*
X47447501Y-75555000D01*
X47172001Y-28585000D02*
X47172001Y-29002338D01*
X47172001Y-31957661D02*
X47172001Y-35663040D01*
X47172001Y-37996963D02*
X47172001Y-54402338D01*
X47172001Y-57357661D02*
X47172001Y-57580370D01*
X47172001Y-59259629D02*
X47172001Y-59336050D01*
X47172001Y-59336050D02*
X47172001Y-72633748D01*
X47172001Y-74686252D02*
X47172001Y-75555000D01*
X46896501Y-28585000D02*
X46896501Y-29174760D01*
X46896501Y-31785239D02*
X46896501Y-33529282D01*
X46896501Y-35041880D02*
X46896501Y-35383099D01*
X46896501Y-38276904D02*
X46896501Y-54574760D01*
X46896501Y-57185239D02*
X46896501Y-58095647D01*
X46896501Y-58720528D02*
X46896501Y-59336050D01*
X46896501Y-59336050D02*
X46896501Y-73045151D01*
X46896501Y-74274848D02*
X46896501Y-75555000D01*
X46621001Y-28585000D02*
X46621001Y-29530000D01*
X46621001Y-29530000D02*
X46621001Y-33354170D01*
X46621001Y-33381929D02*
X46621001Y-33396071D01*
X46621001Y-35183931D02*
X46621001Y-35198073D01*
X46621001Y-35225833D02*
X46621001Y-35332364D01*
X46621001Y-38327638D02*
X46621001Y-54930000D01*
X46621001Y-54930000D02*
X46621001Y-58369964D01*
X46621001Y-58369964D02*
X46621001Y-59336050D01*
X46621001Y-59336050D02*
X46621001Y-73512755D01*
X46621001Y-73512755D02*
X46621001Y-75555000D01*
X46345501Y-28585000D02*
X46345501Y-29530000D01*
X46345501Y-29530000D02*
X46345501Y-33040034D01*
X46345501Y-33657429D02*
X46345501Y-33671571D01*
X46345501Y-34908431D02*
X46345501Y-34922573D01*
X46345501Y-38327638D02*
X46345501Y-54930000D01*
X46345501Y-54930000D02*
X46345501Y-58369964D01*
X46345501Y-58369964D02*
X46345501Y-59336050D01*
X46345501Y-59336050D02*
X46345501Y-73512755D01*
X46345501Y-73512755D02*
X46345501Y-75555000D01*
X46070001Y-28585000D02*
X46070001Y-29530000D01*
X46070001Y-29530000D02*
X46070001Y-32935294D01*
X46070001Y-33932929D02*
X46070001Y-33947071D01*
X46070001Y-34632931D02*
X46070001Y-34647073D01*
X46070001Y-38327638D02*
X46070001Y-54930000D01*
X46070001Y-54930000D02*
X46070001Y-58369964D01*
X46070001Y-58369964D02*
X46070001Y-59336050D01*
X46070001Y-59336050D02*
X46070001Y-73512755D01*
X46070001Y-73512755D02*
X46070001Y-75555000D01*
X45794501Y-28585000D02*
X45794501Y-29530000D01*
X45794501Y-29530000D02*
X45794501Y-32892439D01*
X45794501Y-34208429D02*
X45794501Y-34222571D01*
X45794501Y-34357431D02*
X45794501Y-34371573D01*
X45794501Y-38327638D02*
X45794501Y-54930000D01*
X45794501Y-54930000D02*
X45794501Y-58369964D01*
X45794501Y-58369964D02*
X45794501Y-59336050D01*
X45794501Y-59336050D02*
X45794501Y-73512755D01*
X45794501Y-73512755D02*
X45794501Y-75555000D01*
X45519001Y-28585000D02*
X45519001Y-29530000D01*
X45519001Y-29530000D02*
X45519001Y-32904845D01*
X45519001Y-34081931D02*
X45519001Y-34096073D01*
X45519001Y-34483929D02*
X45519001Y-34498071D01*
X45519001Y-38327638D02*
X45519001Y-54930000D01*
X45519001Y-54930000D02*
X45519001Y-58369964D01*
X45519001Y-58369964D02*
X45519001Y-59336050D01*
X45519001Y-59336050D02*
X45519001Y-73512755D01*
X45519001Y-73512755D02*
X45519001Y-75555000D01*
X45243501Y-28585000D02*
X45243501Y-29530000D01*
X45243501Y-29530000D02*
X45243501Y-32973092D01*
X45243501Y-33806431D02*
X45243501Y-33820573D01*
X45243501Y-34759429D02*
X45243501Y-34773571D01*
X45243501Y-38327638D02*
X45243501Y-54930000D01*
X45243501Y-54930000D02*
X45243501Y-58369964D01*
X45243501Y-58369964D02*
X45243501Y-59336050D01*
X45243501Y-59336050D02*
X45243501Y-73512755D01*
X45243501Y-73512755D02*
X45243501Y-75555000D01*
X44968001Y-28585000D02*
X44968001Y-29530000D01*
X44968001Y-29530000D02*
X44968001Y-33107673D01*
X44968001Y-33530931D02*
X44968001Y-33545073D01*
X44968001Y-35034929D02*
X44968001Y-35049071D01*
X44968001Y-38327638D02*
X44968001Y-54930000D01*
X44968001Y-54930000D02*
X44968001Y-58369964D01*
X44968001Y-58369964D02*
X44968001Y-59336050D01*
X44968001Y-59336050D02*
X44968001Y-73512755D01*
X44968001Y-73512755D02*
X44968001Y-75555000D01*
X44692501Y-28585000D02*
X44692501Y-29530000D01*
X44692501Y-29530000D02*
X44692501Y-33373951D01*
X44692501Y-33373951D02*
X44692501Y-33425971D01*
X44692501Y-35154030D02*
X44692501Y-35339997D01*
X44692501Y-38320004D02*
X44692501Y-54930000D01*
X44692501Y-54930000D02*
X44692501Y-58369964D01*
X44692501Y-58369964D02*
X44692501Y-59336050D01*
X44692501Y-59336050D02*
X44692501Y-73512755D01*
X44692501Y-73512755D02*
X44692501Y-75555000D01*
X44417001Y-28585000D02*
X44417001Y-29530000D01*
X44417001Y-29530000D02*
X44417001Y-33373951D01*
X44417001Y-33373951D02*
X44417001Y-33789151D01*
X44417001Y-34801051D02*
X44417001Y-35464663D01*
X44417001Y-38195338D02*
X44417001Y-54930000D01*
X44417001Y-54930000D02*
X44417001Y-58369964D01*
X44417001Y-58369964D02*
X44417001Y-59336050D01*
X44417001Y-59336050D02*
X44417001Y-73512755D01*
X44417001Y-73512755D02*
X44417001Y-75555000D01*
X44141501Y-28585000D02*
X44141501Y-29530000D01*
X44141501Y-29530000D02*
X44141501Y-33373951D01*
X44141501Y-33373951D02*
X44141501Y-34239965D01*
X44141501Y-34239965D02*
X44141501Y-35880001D01*
X44141501Y-35880001D02*
X44141501Y-54930000D01*
X44141501Y-54930000D02*
X44141501Y-58369964D01*
X44141501Y-58369964D02*
X44141501Y-59336050D01*
X44141501Y-59336050D02*
X44141501Y-73512755D01*
X44141501Y-73512755D02*
X44141501Y-75555000D01*
X43866001Y-28585000D02*
X43866001Y-29530000D01*
X43866001Y-29530000D02*
X43866001Y-33373951D01*
X43866001Y-33373951D02*
X43866001Y-34239965D01*
X43866001Y-34239965D02*
X43866001Y-35880001D01*
X43866001Y-35880001D02*
X43866001Y-54930000D01*
X43866001Y-54930000D02*
X43866001Y-58369964D01*
X43866001Y-58369964D02*
X43866001Y-59336050D01*
X43866001Y-59336050D02*
X43866001Y-73512755D01*
X43866001Y-73512755D02*
X43866001Y-75555000D01*
X43590501Y-28585000D02*
X43590501Y-29530000D01*
X43590501Y-29530000D02*
X43590501Y-33373951D01*
X43590501Y-33373951D02*
X43590501Y-34239965D01*
X43590501Y-34239965D02*
X43590501Y-35880001D01*
X43590501Y-35880001D02*
X43590501Y-54930000D01*
X43590501Y-54930000D02*
X43590501Y-58369964D01*
X43590501Y-58369964D02*
X43590501Y-59336050D01*
X43590501Y-59336050D02*
X43590501Y-73512755D01*
X43590501Y-73512755D02*
X43590501Y-75555000D01*
X43315001Y-28585000D02*
X43315001Y-29530000D01*
X43315001Y-29530000D02*
X43315001Y-33373951D01*
X43315001Y-33373951D02*
X43315001Y-34239965D01*
X43315001Y-34239965D02*
X43315001Y-35880001D01*
X43315001Y-35880001D02*
X43315001Y-54930000D01*
X43315001Y-54930000D02*
X43315001Y-58369964D01*
X43315001Y-58369964D02*
X43315001Y-59336050D01*
X43315001Y-59336050D02*
X43315001Y-73512755D01*
X43315001Y-73512755D02*
X43315001Y-75555000D01*
X43039501Y-28585000D02*
X43039501Y-29530000D01*
X43039501Y-29530000D02*
X43039501Y-33373951D01*
X43039501Y-33373951D02*
X43039501Y-34239965D01*
X43039501Y-34239965D02*
X43039501Y-35880001D01*
X43039501Y-35880001D02*
X43039501Y-54930000D01*
X43039501Y-54930000D02*
X43039501Y-58369964D01*
X43039501Y-58369964D02*
X43039501Y-59336050D01*
X43039501Y-59336050D02*
X43039501Y-73512755D01*
X43039501Y-73512755D02*
X43039501Y-75555000D01*
X42764001Y-28585000D02*
X42764001Y-29530000D01*
X42764001Y-29530000D02*
X42764001Y-33373951D01*
X42764001Y-33373951D02*
X42764001Y-34239965D01*
X42764001Y-34239965D02*
X42764001Y-35880001D01*
X42764001Y-35880001D02*
X42764001Y-54930000D01*
X42764001Y-54930000D02*
X42764001Y-58369964D01*
X42764001Y-58369964D02*
X42764001Y-59336050D01*
X42764001Y-59336050D02*
X42764001Y-73512755D01*
X42764001Y-73512755D02*
X42764001Y-75555000D01*
X42488501Y-28585000D02*
X42488501Y-29530000D01*
X42488501Y-29530000D02*
X42488501Y-33373951D01*
X42488501Y-33373951D02*
X42488501Y-34239965D01*
X42488501Y-34239965D02*
X42488501Y-35880001D01*
X42488501Y-35880001D02*
X42488501Y-54930000D01*
X42488501Y-54930000D02*
X42488501Y-58369964D01*
X42488501Y-58369964D02*
X42488501Y-59336050D01*
X42488501Y-59336050D02*
X42488501Y-73512755D01*
X42488501Y-73512755D02*
X42488501Y-75555000D01*
X42213001Y-28585000D02*
X42213001Y-29530000D01*
X42213001Y-29530000D02*
X42213001Y-33373951D01*
X42213001Y-33373951D02*
X42213001Y-34239965D01*
X42213001Y-34239965D02*
X42213001Y-35880001D01*
X42213001Y-35880001D02*
X42213001Y-54930000D01*
X42213001Y-54930000D02*
X42213001Y-58369964D01*
X42213001Y-58369964D02*
X42213001Y-59336050D01*
X42213001Y-59336050D02*
X42213001Y-73512755D01*
X42213001Y-73512755D02*
X42213001Y-75555000D01*
X41937501Y-28585000D02*
X41937501Y-29530000D01*
X41937501Y-29530000D02*
X41937501Y-33373951D01*
X41937501Y-33373951D02*
X41937501Y-34239965D01*
X41937501Y-34239965D02*
X41937501Y-35880001D01*
X41937501Y-35880001D02*
X41937501Y-54930000D01*
X41937501Y-54930000D02*
X41937501Y-58369964D01*
X41937501Y-58369964D02*
X41937501Y-59336050D01*
X41937501Y-59336050D02*
X41937501Y-73512755D01*
X41937501Y-73512755D02*
X41937501Y-75555000D01*
X41662001Y-28585000D02*
X41662001Y-29530000D01*
X41662001Y-29530000D02*
X41662001Y-33373951D01*
X41662001Y-33373951D02*
X41662001Y-34239965D01*
X41662001Y-34239965D02*
X41662001Y-35880001D01*
X41662001Y-35880001D02*
X41662001Y-54930000D01*
X41662001Y-54930000D02*
X41662001Y-58369964D01*
X41662001Y-58369964D02*
X41662001Y-59336050D01*
X41662001Y-59336050D02*
X41662001Y-73512755D01*
X41662001Y-73512755D02*
X41662001Y-75555000D01*
X41386501Y-28585000D02*
X41386501Y-29530000D01*
X41386501Y-29530000D02*
X41386501Y-33373951D01*
X41386501Y-33373951D02*
X41386501Y-34239965D01*
X41386501Y-34239965D02*
X41386501Y-35880001D01*
X41386501Y-35880001D02*
X41386501Y-54930000D01*
X41386501Y-54930000D02*
X41386501Y-58369964D01*
X41386501Y-58369964D02*
X41386501Y-59336050D01*
X41386501Y-59336050D02*
X41386501Y-73512755D01*
X41386501Y-73512755D02*
X41386501Y-75555000D01*
X41111001Y-28585000D02*
X41111001Y-29530000D01*
X41111001Y-29530000D02*
X41111001Y-33373951D01*
X41111001Y-33373951D02*
X41111001Y-34239965D01*
X41111001Y-34239965D02*
X41111001Y-35880001D01*
X41111001Y-35880001D02*
X41111001Y-54930000D01*
X41111001Y-54930000D02*
X41111001Y-58369964D01*
X41111001Y-58369964D02*
X41111001Y-59336050D01*
X41111001Y-59336050D02*
X41111001Y-73512755D01*
X41111001Y-73512755D02*
X41111001Y-75555000D01*
X40835501Y-28585000D02*
X40835501Y-29530000D01*
X40835501Y-29530000D02*
X40835501Y-33373951D01*
X40835501Y-33373951D02*
X40835501Y-34239965D01*
X40835501Y-34239965D02*
X40835501Y-35880001D01*
X40835501Y-35880001D02*
X40835501Y-54930000D01*
X40835501Y-54930000D02*
X40835501Y-58369964D01*
X40835501Y-58369964D02*
X40835501Y-59336050D01*
X40835501Y-59336050D02*
X40835501Y-73512755D01*
X40835501Y-73512755D02*
X40835501Y-75555000D01*
X40560001Y-28585000D02*
X40560001Y-29530000D01*
X40560001Y-29530000D02*
X40560001Y-33373951D01*
X40560001Y-33373951D02*
X40560001Y-34239965D01*
X40560001Y-34239965D02*
X40560001Y-35880001D01*
X40560001Y-35880001D02*
X40560001Y-54930000D01*
X40560001Y-54930000D02*
X40560001Y-58369964D01*
X40560001Y-58369964D02*
X40560001Y-59336050D01*
X40560001Y-59336050D02*
X40560001Y-73512755D01*
X40560001Y-73512755D02*
X40560001Y-75555000D01*
X40284501Y-28585000D02*
X40284501Y-29530000D01*
X40284501Y-29530000D02*
X40284501Y-33373951D01*
X40284501Y-33373951D02*
X40284501Y-34239965D01*
X40284501Y-34239965D02*
X40284501Y-35880001D01*
X40284501Y-35880001D02*
X40284501Y-54930000D01*
X40284501Y-54930000D02*
X40284501Y-58369964D01*
X40284501Y-58369964D02*
X40284501Y-59336050D01*
X40284501Y-59336050D02*
X40284501Y-73512755D01*
X40284501Y-73512755D02*
X40284501Y-75555000D01*
X40009001Y-28585000D02*
X40009001Y-29530000D01*
X40009001Y-29530000D02*
X40009001Y-33373951D01*
X40009001Y-33373951D02*
X40009001Y-34239965D01*
X40009001Y-34239965D02*
X40009001Y-35880001D01*
X40009001Y-35880001D02*
X40009001Y-54930000D01*
X40009001Y-54930000D02*
X40009001Y-58369964D01*
X40009001Y-58369964D02*
X40009001Y-59336050D01*
X40009001Y-59336050D02*
X40009001Y-73512755D01*
X40009001Y-73512755D02*
X40009001Y-75555000D01*
X39733501Y-28585000D02*
X39733501Y-29530000D01*
X39733501Y-29530000D02*
X39733501Y-33373951D01*
X39733501Y-33373951D02*
X39733501Y-34239965D01*
X39733501Y-34239965D02*
X39733501Y-35880001D01*
X39733501Y-35880001D02*
X39733501Y-54930000D01*
X39733501Y-54930000D02*
X39733501Y-58369964D01*
X39733501Y-58369964D02*
X39733501Y-59336050D01*
X39733501Y-59336050D02*
X39733501Y-73512755D01*
X39733501Y-73512755D02*
X39733501Y-75555000D01*
X39458001Y-28585000D02*
X39458001Y-29530000D01*
X39458001Y-29530000D02*
X39458001Y-33373951D01*
X39458001Y-33373951D02*
X39458001Y-34239965D01*
X39458001Y-34239965D02*
X39458001Y-35880001D01*
X39458001Y-35880001D02*
X39458001Y-54930000D01*
X39458001Y-54930000D02*
X39458001Y-58369964D01*
X39458001Y-58369964D02*
X39458001Y-59336050D01*
X39458001Y-59336050D02*
X39458001Y-73512755D01*
X39458001Y-73512755D02*
X39458001Y-75555000D01*
X39182501Y-28585000D02*
X39182501Y-29530000D01*
X39182501Y-29530000D02*
X39182501Y-33373951D01*
X39182501Y-33373951D02*
X39182501Y-34239965D01*
X39182501Y-34239965D02*
X39182501Y-35880001D01*
X39182501Y-35880001D02*
X39182501Y-54930000D01*
X39182501Y-54930000D02*
X39182501Y-58369964D01*
X39182501Y-58369964D02*
X39182501Y-59336050D01*
X39182501Y-59336050D02*
X39182501Y-73512755D01*
X39182501Y-73512755D02*
X39182501Y-75555000D01*
X38907001Y-28585000D02*
X38907001Y-29530000D01*
X38907001Y-29530000D02*
X38907001Y-33373951D01*
X38907001Y-33373951D02*
X38907001Y-34239965D01*
X38907001Y-34239965D02*
X38907001Y-35880001D01*
X38907001Y-35880001D02*
X38907001Y-54930000D01*
X38907001Y-54930000D02*
X38907001Y-58369964D01*
X38907001Y-58369964D02*
X38907001Y-59336050D01*
X38907001Y-59336050D02*
X38907001Y-73512755D01*
X38907001Y-73512755D02*
X38907001Y-75555000D01*
X38631501Y-28585000D02*
X38631501Y-29530000D01*
X38631501Y-29530000D02*
X38631501Y-33373951D01*
X38631501Y-33373951D02*
X38631501Y-34239965D01*
X38631501Y-34239965D02*
X38631501Y-35880001D01*
X38631501Y-35880001D02*
X38631501Y-54930000D01*
X38631501Y-54930000D02*
X38631501Y-58369964D01*
X38631501Y-58369964D02*
X38631501Y-59336050D01*
X38631501Y-59336050D02*
X38631501Y-73512755D01*
X38631501Y-73512755D02*
X38631501Y-75555000D01*
X38356001Y-28585000D02*
X38356001Y-29530000D01*
X38356001Y-29530000D02*
X38356001Y-33373951D01*
X38356001Y-33373951D02*
X38356001Y-34239965D01*
X38356001Y-34239965D02*
X38356001Y-35880001D01*
X38356001Y-35880001D02*
X38356001Y-54930000D01*
X38356001Y-54930000D02*
X38356001Y-58369964D01*
X38356001Y-58369964D02*
X38356001Y-59336050D01*
X38356001Y-59336050D02*
X38356001Y-73512755D01*
X38356001Y-73512755D02*
X38356001Y-75555000D01*
X38080501Y-28585000D02*
X38080501Y-29530000D01*
X38080501Y-29530000D02*
X38080501Y-33373951D01*
X38080501Y-33373951D02*
X38080501Y-34239965D01*
X38080501Y-34239965D02*
X38080501Y-35880001D01*
X38080501Y-35880001D02*
X38080501Y-54930000D01*
X38080501Y-54930000D02*
X38080501Y-58369964D01*
X38080501Y-58369964D02*
X38080501Y-59336050D01*
X38080501Y-59336050D02*
X38080501Y-73512755D01*
X38080501Y-73512755D02*
X38080501Y-75555000D01*
X37805001Y-28585000D02*
X37805001Y-29530000D01*
X37805001Y-29530000D02*
X37805001Y-33373951D01*
X37805001Y-33373951D02*
X37805001Y-34239965D01*
X37805001Y-34239965D02*
X37805001Y-35880001D01*
X37805001Y-35880001D02*
X37805001Y-54930000D01*
X37805001Y-54930000D02*
X37805001Y-58369964D01*
X37805001Y-58369964D02*
X37805001Y-59336050D01*
X37805001Y-59336050D02*
X37805001Y-73512755D01*
X37805001Y-73512755D02*
X37805001Y-75555000D01*
X37529501Y-28585000D02*
X37529501Y-29530000D01*
X37529501Y-29530000D02*
X37529501Y-33373951D01*
X37529501Y-33373951D02*
X37529501Y-34239965D01*
X37529501Y-34239965D02*
X37529501Y-35880001D01*
X37529501Y-35880001D02*
X37529501Y-54930000D01*
X37529501Y-54930000D02*
X37529501Y-58369964D01*
X37529501Y-58369964D02*
X37529501Y-59336050D01*
X37529501Y-59336050D02*
X37529501Y-73512755D01*
X37529501Y-73512755D02*
X37529501Y-75555000D01*
X37254001Y-28585000D02*
X37254001Y-29530000D01*
X37254001Y-29530000D02*
X37254001Y-33373951D01*
X37254001Y-33373951D02*
X37254001Y-34239965D01*
X37254001Y-34239965D02*
X37254001Y-35880001D01*
X37254001Y-35880001D02*
X37254001Y-54930000D01*
X37254001Y-54930000D02*
X37254001Y-58369964D01*
X37254001Y-58369964D02*
X37254001Y-59336050D01*
X37254001Y-59336050D02*
X37254001Y-73512755D01*
X37254001Y-73512755D02*
X37254001Y-75555000D01*
X36978501Y-28585000D02*
X36978501Y-29530000D01*
X36978501Y-29530000D02*
X36978501Y-33373951D01*
X36978501Y-33373951D02*
X36978501Y-34239965D01*
X36978501Y-34239965D02*
X36978501Y-35880001D01*
X36978501Y-35880001D02*
X36978501Y-54930000D01*
X36978501Y-54930000D02*
X36978501Y-58369964D01*
X36978501Y-58369964D02*
X36978501Y-59336050D01*
X36978501Y-59336050D02*
X36978501Y-73512755D01*
X36978501Y-73512755D02*
X36978501Y-75555000D01*
X36703001Y-28585000D02*
X36703001Y-29530000D01*
X36703001Y-29530000D02*
X36703001Y-33373951D01*
X36703001Y-33373951D02*
X36703001Y-34239965D01*
X36703001Y-34239965D02*
X36703001Y-35880001D01*
X36703001Y-35880001D02*
X36703001Y-54930000D01*
X36703001Y-54930000D02*
X36703001Y-58369964D01*
X36703001Y-58369964D02*
X36703001Y-59336050D01*
X36703001Y-59336050D02*
X36703001Y-73512755D01*
X36703001Y-73512755D02*
X36703001Y-75555000D01*
X36427501Y-28585000D02*
X36427501Y-29530000D01*
X36427501Y-29530000D02*
X36427501Y-33373951D01*
X36427501Y-33373951D02*
X36427501Y-34239965D01*
X36427501Y-34239965D02*
X36427501Y-35880001D01*
X36427501Y-35880001D02*
X36427501Y-54930000D01*
X36427501Y-54930000D02*
X36427501Y-58369964D01*
X36427501Y-58369964D02*
X36427501Y-59336050D01*
X36427501Y-59336050D02*
X36427501Y-73512755D01*
X36427501Y-73512755D02*
X36427501Y-75555000D01*
X98415001Y-75555000D02*
X36205000Y-75555000D01*
X36205000Y-73512755D01*
X46764999Y-73512755D01*
X46764999Y-73807245D01*
X46822451Y-74096076D01*
X46935147Y-74368148D01*
X47098756Y-74613007D01*
X47306992Y-74821243D01*
X47551851Y-74984852D01*
X47823923Y-75097548D01*
X48112754Y-75155000D01*
X48407244Y-75155000D01*
X48696075Y-75097548D01*
X48968147Y-74984852D01*
X49213006Y-74821243D01*
X49421242Y-74613007D01*
X49529999Y-74450240D01*
X49638756Y-74613007D01*
X49846992Y-74821243D01*
X50091851Y-74984852D01*
X50363923Y-75097548D01*
X50652754Y-75155000D01*
X50947244Y-75155000D01*
X51236075Y-75097548D01*
X51508147Y-74984852D01*
X51753006Y-74821243D01*
X51961242Y-74613007D01*
X52069999Y-74450240D01*
X52178756Y-74613007D01*
X52386992Y-74821243D01*
X52631851Y-74984852D01*
X52903923Y-75097548D01*
X53192754Y-75155000D01*
X53487244Y-75155000D01*
X53776075Y-75097548D01*
X54048147Y-74984852D01*
X54293006Y-74821243D01*
X54501242Y-74613007D01*
X54609999Y-74450240D01*
X54718756Y-74613007D01*
X54926992Y-74821243D01*
X55171851Y-74984852D01*
X55443923Y-75097548D01*
X55732754Y-75155000D01*
X56027244Y-75155000D01*
X56316075Y-75097548D01*
X56588147Y-74984852D01*
X56833006Y-74821243D01*
X57041242Y-74613007D01*
X57149999Y-74450240D01*
X57258756Y-74613007D01*
X57466992Y-74821243D01*
X57711851Y-74984852D01*
X57983923Y-75097548D01*
X58272754Y-75155000D01*
X58567244Y-75155000D01*
X58856075Y-75097548D01*
X59128147Y-74984852D01*
X59373006Y-74821243D01*
X59581242Y-74613007D01*
X59605935Y-74576050D01*
X60051020Y-74576050D01*
X60140121Y-74796971D01*
X60377687Y-74935075D01*
X60637630Y-75024179D01*
X60909963Y-75060858D01*
X61184218Y-75043703D01*
X61449856Y-74973372D01*
X61696670Y-74852570D01*
X61779877Y-74796971D01*
X61868978Y-74576050D01*
X60959999Y-73667071D01*
X60051020Y-74576050D01*
X59605935Y-74576050D01*
X59744851Y-74368148D01*
X59748801Y-74358612D01*
X59767429Y-74396671D01*
X59823028Y-74479878D01*
X60043949Y-74568979D01*
X60952928Y-73660000D01*
X60967070Y-73660000D01*
X61876049Y-74568979D01*
X62096970Y-74479878D01*
X62169644Y-74354864D01*
X62175147Y-74368148D01*
X62338756Y-74613007D01*
X62546992Y-74821243D01*
X62791851Y-74984852D01*
X63063923Y-75097548D01*
X63352754Y-75155000D01*
X63647244Y-75155000D01*
X63936075Y-75097548D01*
X64208147Y-74984852D01*
X64453006Y-74821243D01*
X64661242Y-74613007D01*
X64769999Y-74450240D01*
X64878756Y-74613007D01*
X65086992Y-74821243D01*
X65331851Y-74984852D01*
X65603923Y-75097548D01*
X65892754Y-75155000D01*
X66187244Y-75155000D01*
X66476075Y-75097548D01*
X66748147Y-74984852D01*
X66993006Y-74821243D01*
X67201242Y-74613007D01*
X67309999Y-74450240D01*
X67418756Y-74613007D01*
X67626992Y-74821243D01*
X67871851Y-74984852D01*
X68143923Y-75097548D01*
X68432754Y-75155000D01*
X68727244Y-75155000D01*
X69016075Y-75097548D01*
X69288147Y-74984852D01*
X69533006Y-74821243D01*
X69741242Y-74613007D01*
X69849999Y-74450240D01*
X69958756Y-74613007D01*
X70166992Y-74821243D01*
X70411851Y-74984852D01*
X70683923Y-75097548D01*
X70972754Y-75155000D01*
X71267244Y-75155000D01*
X71556075Y-75097548D01*
X71828147Y-74984852D01*
X72073006Y-74821243D01*
X72281242Y-74613007D01*
X72389999Y-74450240D01*
X72498756Y-74613007D01*
X72706992Y-74821243D01*
X72951851Y-74984852D01*
X73223923Y-75097548D01*
X73512754Y-75155000D01*
X73807244Y-75155000D01*
X74096075Y-75097548D01*
X74368147Y-74984852D01*
X74613006Y-74821243D01*
X74821242Y-74613007D01*
X74929999Y-74450240D01*
X75038756Y-74613007D01*
X75246992Y-74821243D01*
X75491851Y-74984852D01*
X75763923Y-75097548D01*
X76052754Y-75155000D01*
X76347244Y-75155000D01*
X76636075Y-75097548D01*
X76908147Y-74984852D01*
X77153006Y-74821243D01*
X77361242Y-74613007D01*
X77469999Y-74450240D01*
X77578756Y-74613007D01*
X77786992Y-74821243D01*
X78031851Y-74984852D01*
X78303923Y-75097548D01*
X78592754Y-75155000D01*
X78887244Y-75155000D01*
X79176075Y-75097548D01*
X79448147Y-74984852D01*
X79693006Y-74821243D01*
X79901242Y-74613007D01*
X80009999Y-74450240D01*
X80118756Y-74613007D01*
X80326992Y-74821243D01*
X80571851Y-74984852D01*
X80843923Y-75097548D01*
X81132754Y-75155000D01*
X81427244Y-75155000D01*
X81716075Y-75097548D01*
X81988147Y-74984852D01*
X82233006Y-74821243D01*
X82441242Y-74613007D01*
X82465935Y-74576050D01*
X82911020Y-74576050D01*
X83000121Y-74796971D01*
X83237687Y-74935075D01*
X83497630Y-75024179D01*
X83769963Y-75060858D01*
X84044218Y-75043703D01*
X84309856Y-74973372D01*
X84556670Y-74852570D01*
X84639877Y-74796971D01*
X84728978Y-74576050D01*
X83819999Y-73667071D01*
X82911020Y-74576050D01*
X82465935Y-74576050D01*
X82604851Y-74368148D01*
X82608801Y-74358612D01*
X82627429Y-74396671D01*
X82683028Y-74479878D01*
X82903949Y-74568979D01*
X83812928Y-73660000D01*
X83827070Y-73660000D01*
X84736049Y-74568979D01*
X84956970Y-74479878D01*
X85029644Y-74354864D01*
X85035147Y-74368148D01*
X85198756Y-74613007D01*
X85406992Y-74821243D01*
X85651851Y-74984852D01*
X85923923Y-75097548D01*
X86212754Y-75155000D01*
X86507244Y-75155000D01*
X86796075Y-75097548D01*
X87068147Y-74984852D01*
X87313006Y-74821243D01*
X87521242Y-74613007D01*
X87629999Y-74450240D01*
X87738756Y-74613007D01*
X87946992Y-74821243D01*
X88191851Y-74984852D01*
X88463923Y-75097548D01*
X88752754Y-75155000D01*
X89047244Y-75155000D01*
X89336075Y-75097548D01*
X89608147Y-74984852D01*
X89853006Y-74821243D01*
X90061242Y-74613007D01*
X90169999Y-74450240D01*
X90278756Y-74613007D01*
X90486992Y-74821243D01*
X90731851Y-74984852D01*
X91003923Y-75097548D01*
X91292754Y-75155000D01*
X91587244Y-75155000D01*
X91876075Y-75097548D01*
X92148147Y-74984852D01*
X92393006Y-74821243D01*
X92601242Y-74613007D01*
X92709999Y-74450240D01*
X92818756Y-74613007D01*
X93026992Y-74821243D01*
X93271851Y-74984852D01*
X93543923Y-75097548D01*
X93832754Y-75155000D01*
X94127244Y-75155000D01*
X94416075Y-75097548D01*
X94688147Y-74984852D01*
X94933006Y-74821243D01*
X95033938Y-74720311D01*
X95064048Y-74819572D01*
X95114655Y-74914251D01*
X95182761Y-74997238D01*
X95265748Y-75065344D01*
X95360427Y-75115951D01*
X95463160Y-75147114D01*
X95569999Y-75157637D01*
X97469999Y-75157637D01*
X97576838Y-75147114D01*
X97679571Y-75115951D01*
X97774250Y-75065344D01*
X97857237Y-74997238D01*
X97925343Y-74914251D01*
X97975950Y-74819572D01*
X98007113Y-74716839D01*
X98017636Y-74610000D01*
X98017636Y-72710000D01*
X98007113Y-72603161D01*
X97975950Y-72500428D01*
X97925343Y-72405749D01*
X97857237Y-72322762D01*
X97774250Y-72254656D01*
X97679571Y-72204049D01*
X97576838Y-72172886D01*
X97469999Y-72162363D01*
X95569999Y-72162363D01*
X95463160Y-72172886D01*
X95360427Y-72204049D01*
X95265748Y-72254656D01*
X95182761Y-72322762D01*
X95114655Y-72405749D01*
X95064048Y-72500428D01*
X95033938Y-72599689D01*
X94933006Y-72498757D01*
X94688147Y-72335148D01*
X94416075Y-72222452D01*
X94127244Y-72165000D01*
X93832754Y-72165000D01*
X93543923Y-72222452D01*
X93271851Y-72335148D01*
X93026992Y-72498757D01*
X92818756Y-72706993D01*
X92709999Y-72869760D01*
X92601242Y-72706993D01*
X92393006Y-72498757D01*
X92148147Y-72335148D01*
X91876075Y-72222452D01*
X91587244Y-72165000D01*
X91292754Y-72165000D01*
X91003923Y-72222452D01*
X90731851Y-72335148D01*
X90486992Y-72498757D01*
X90278756Y-72706993D01*
X90169999Y-72869760D01*
X90061242Y-72706993D01*
X89853006Y-72498757D01*
X89608147Y-72335148D01*
X89336075Y-72222452D01*
X89047244Y-72165000D01*
X88752754Y-72165000D01*
X88463923Y-72222452D01*
X88191851Y-72335148D01*
X87946992Y-72498757D01*
X87738756Y-72706993D01*
X87629999Y-72869760D01*
X87521242Y-72706993D01*
X87313006Y-72498757D01*
X87068147Y-72335148D01*
X86796075Y-72222452D01*
X86507244Y-72165000D01*
X86212754Y-72165000D01*
X85923923Y-72222452D01*
X85651851Y-72335148D01*
X85406992Y-72498757D01*
X85198756Y-72706993D01*
X85035147Y-72951852D01*
X85031197Y-72961388D01*
X85012569Y-72923329D01*
X84956970Y-72840122D01*
X84736049Y-72751021D01*
X83827070Y-73660000D01*
X83812928Y-73660000D01*
X82903949Y-72751021D01*
X82683028Y-72840122D01*
X82610354Y-72965136D01*
X82604851Y-72951852D01*
X82465936Y-72743950D01*
X82911020Y-72743950D01*
X83819999Y-73652929D01*
X84728978Y-72743950D01*
X84639877Y-72523029D01*
X84402311Y-72384925D01*
X84142368Y-72295821D01*
X83870035Y-72259142D01*
X83595780Y-72276297D01*
X83330142Y-72346628D01*
X83083328Y-72467430D01*
X83000121Y-72523029D01*
X82911020Y-72743950D01*
X82465936Y-72743950D01*
X82441242Y-72706993D01*
X82233006Y-72498757D01*
X81988147Y-72335148D01*
X81716075Y-72222452D01*
X81427244Y-72165000D01*
X81132754Y-72165000D01*
X80843923Y-72222452D01*
X80571851Y-72335148D01*
X80326992Y-72498757D01*
X80118756Y-72706993D01*
X80009999Y-72869760D01*
X79901242Y-72706993D01*
X79693006Y-72498757D01*
X79448147Y-72335148D01*
X79176075Y-72222452D01*
X78887244Y-72165000D01*
X78592754Y-72165000D01*
X78303923Y-72222452D01*
X78031851Y-72335148D01*
X77786992Y-72498757D01*
X77578756Y-72706993D01*
X77469999Y-72869760D01*
X77361242Y-72706993D01*
X77153006Y-72498757D01*
X76908147Y-72335148D01*
X76636075Y-72222452D01*
X76347244Y-72165000D01*
X76052754Y-72165000D01*
X75763923Y-72222452D01*
X75491851Y-72335148D01*
X75246992Y-72498757D01*
X75038756Y-72706993D01*
X74929999Y-72869760D01*
X74821242Y-72706993D01*
X74613006Y-72498757D01*
X74368147Y-72335148D01*
X74096075Y-72222452D01*
X73807244Y-72165000D01*
X73512754Y-72165000D01*
X73223923Y-72222452D01*
X72951851Y-72335148D01*
X72706992Y-72498757D01*
X72498756Y-72706993D01*
X72389999Y-72869760D01*
X72281242Y-72706993D01*
X72073006Y-72498757D01*
X71828147Y-72335148D01*
X71556075Y-72222452D01*
X71267244Y-72165000D01*
X70972754Y-72165000D01*
X70683923Y-72222452D01*
X70411851Y-72335148D01*
X70166992Y-72498757D01*
X69958756Y-72706993D01*
X69849999Y-72869760D01*
X69741242Y-72706993D01*
X69533006Y-72498757D01*
X69288147Y-72335148D01*
X69016075Y-72222452D01*
X68727244Y-72165000D01*
X68432754Y-72165000D01*
X68143923Y-72222452D01*
X67871851Y-72335148D01*
X67626992Y-72498757D01*
X67418756Y-72706993D01*
X67309999Y-72869760D01*
X67201242Y-72706993D01*
X66993006Y-72498757D01*
X66748147Y-72335148D01*
X66476075Y-72222452D01*
X66187244Y-72165000D01*
X65892754Y-72165000D01*
X65603923Y-72222452D01*
X65331851Y-72335148D01*
X65086992Y-72498757D01*
X64878756Y-72706993D01*
X64769999Y-72869760D01*
X64661242Y-72706993D01*
X64453006Y-72498757D01*
X64208147Y-72335148D01*
X63936075Y-72222452D01*
X63647244Y-72165000D01*
X63352754Y-72165000D01*
X63063923Y-72222452D01*
X62791851Y-72335148D01*
X62546992Y-72498757D01*
X62338756Y-72706993D01*
X62175147Y-72951852D01*
X62171197Y-72961388D01*
X62152569Y-72923329D01*
X62096970Y-72840122D01*
X61876049Y-72751021D01*
X60967070Y-73660000D01*
X60952928Y-73660000D01*
X60043949Y-72751021D01*
X59823028Y-72840122D01*
X59750354Y-72965136D01*
X59744851Y-72951852D01*
X59605936Y-72743950D01*
X60051020Y-72743950D01*
X60959999Y-73652929D01*
X61868978Y-72743950D01*
X61779877Y-72523029D01*
X61542311Y-72384925D01*
X61282368Y-72295821D01*
X61010035Y-72259142D01*
X60735780Y-72276297D01*
X60470142Y-72346628D01*
X60223328Y-72467430D01*
X60140121Y-72523029D01*
X60051020Y-72743950D01*
X59605936Y-72743950D01*
X59581242Y-72706993D01*
X59373006Y-72498757D01*
X59128147Y-72335148D01*
X58856075Y-72222452D01*
X58567244Y-72165000D01*
X58272754Y-72165000D01*
X57983923Y-72222452D01*
X57711851Y-72335148D01*
X57466992Y-72498757D01*
X57258756Y-72706993D01*
X57149999Y-72869760D01*
X57041242Y-72706993D01*
X56833006Y-72498757D01*
X56588147Y-72335148D01*
X56316075Y-72222452D01*
X56027244Y-72165000D01*
X55732754Y-72165000D01*
X55443923Y-72222452D01*
X55171851Y-72335148D01*
X54926992Y-72498757D01*
X54718756Y-72706993D01*
X54609999Y-72869760D01*
X54501242Y-72706993D01*
X54293006Y-72498757D01*
X54048147Y-72335148D01*
X53776075Y-72222452D01*
X53487244Y-72165000D01*
X53192754Y-72165000D01*
X52903923Y-72222452D01*
X52631851Y-72335148D01*
X52386992Y-72498757D01*
X52178756Y-72706993D01*
X52069999Y-72869760D01*
X51961242Y-72706993D01*
X51753006Y-72498757D01*
X51508147Y-72335148D01*
X51236075Y-72222452D01*
X50947244Y-72165000D01*
X50652754Y-72165000D01*
X50363923Y-72222452D01*
X50091851Y-72335148D01*
X49846992Y-72498757D01*
X49638756Y-72706993D01*
X49529999Y-72869760D01*
X49421242Y-72706993D01*
X49213006Y-72498757D01*
X48968147Y-72335148D01*
X48696075Y-72222452D01*
X48407244Y-72165000D01*
X48112754Y-72165000D01*
X47823923Y-72222452D01*
X47551851Y-72335148D01*
X47306992Y-72498757D01*
X47098756Y-72706993D01*
X46935147Y-72951852D01*
X46822451Y-73223924D01*
X46764999Y-73512755D01*
X36205000Y-73512755D01*
X36205000Y-59336050D01*
X47351021Y-59336050D01*
X47440122Y-59556971D01*
X47677688Y-59695075D01*
X47937631Y-59784179D01*
X48209964Y-59820858D01*
X48484219Y-59803703D01*
X48749857Y-59733372D01*
X48996671Y-59612570D01*
X49079878Y-59556971D01*
X49168979Y-59336050D01*
X48260000Y-58427071D01*
X47351021Y-59336050D01*
X36205000Y-59336050D01*
X36205000Y-58369964D01*
X46859142Y-58369964D01*
X46876297Y-58644219D01*
X46946628Y-58909857D01*
X47067430Y-59156671D01*
X47123029Y-59239878D01*
X47343950Y-59328979D01*
X48252929Y-58420000D01*
X48267071Y-58420000D01*
X49176050Y-59328979D01*
X49396971Y-59239878D01*
X49535075Y-59002312D01*
X49624179Y-58742369D01*
X49660858Y-58470036D01*
X49648518Y-58272755D01*
X64545000Y-58272755D01*
X64545000Y-58567245D01*
X64602452Y-58856076D01*
X64715148Y-59128148D01*
X64878757Y-59373007D01*
X65086993Y-59581243D01*
X65331852Y-59744852D01*
X65603924Y-59857548D01*
X65892755Y-59915000D01*
X66187245Y-59915000D01*
X66476076Y-59857548D01*
X66748148Y-59744852D01*
X66993007Y-59581243D01*
X67201243Y-59373007D01*
X67310000Y-59210240D01*
X67418757Y-59373007D01*
X67626993Y-59581243D01*
X67871852Y-59744852D01*
X68143924Y-59857548D01*
X68432755Y-59915000D01*
X68727245Y-59915000D01*
X69016076Y-59857548D01*
X69288148Y-59744852D01*
X69533007Y-59581243D01*
X69741243Y-59373007D01*
X69850000Y-59210240D01*
X69958757Y-59373007D01*
X70166993Y-59581243D01*
X70411852Y-59744852D01*
X70683924Y-59857548D01*
X70972755Y-59915000D01*
X71267245Y-59915000D01*
X71556076Y-59857548D01*
X71828148Y-59744852D01*
X72073007Y-59581243D01*
X72281243Y-59373007D01*
X72390000Y-59210240D01*
X72498757Y-59373007D01*
X72706993Y-59581243D01*
X72951852Y-59744852D01*
X73223924Y-59857548D01*
X73512755Y-59915000D01*
X73807245Y-59915000D01*
X74096076Y-59857548D01*
X74368148Y-59744852D01*
X74613007Y-59581243D01*
X74821243Y-59373007D01*
X74930000Y-59210240D01*
X75038757Y-59373007D01*
X75246993Y-59581243D01*
X75491852Y-59744852D01*
X75763924Y-59857548D01*
X76052755Y-59915000D01*
X76347245Y-59915000D01*
X76636076Y-59857548D01*
X76908148Y-59744852D01*
X77153007Y-59581243D01*
X77253939Y-59480311D01*
X77284049Y-59579572D01*
X77334656Y-59674251D01*
X77402762Y-59757238D01*
X77485749Y-59825344D01*
X77580428Y-59875951D01*
X77683161Y-59907114D01*
X77790000Y-59917637D01*
X79690000Y-59917637D01*
X79796839Y-59907114D01*
X79899572Y-59875951D01*
X79994251Y-59825344D01*
X80077238Y-59757238D01*
X80145344Y-59674251D01*
X80195951Y-59579572D01*
X80227114Y-59476839D01*
X80237637Y-59370000D01*
X80237637Y-57470000D01*
X80227114Y-57363161D01*
X80195951Y-57260428D01*
X80145344Y-57165749D01*
X80077238Y-57082762D01*
X79994251Y-57014656D01*
X79899572Y-56964049D01*
X79796839Y-56932886D01*
X79690000Y-56922363D01*
X77790000Y-56922363D01*
X77683161Y-56932886D01*
X77580428Y-56964049D01*
X77485749Y-57014656D01*
X77402762Y-57082762D01*
X77334656Y-57165749D01*
X77284049Y-57260428D01*
X77253939Y-57359689D01*
X77153007Y-57258757D01*
X76908148Y-57095148D01*
X76636076Y-56982452D01*
X76347245Y-56925000D01*
X76052755Y-56925000D01*
X75763924Y-56982452D01*
X75491852Y-57095148D01*
X75246993Y-57258757D01*
X75038757Y-57466993D01*
X74930000Y-57629760D01*
X74821243Y-57466993D01*
X74613007Y-57258757D01*
X74368148Y-57095148D01*
X74096076Y-56982452D01*
X73807245Y-56925000D01*
X73512755Y-56925000D01*
X73223924Y-56982452D01*
X72951852Y-57095148D01*
X72706993Y-57258757D01*
X72498757Y-57466993D01*
X72390000Y-57629760D01*
X72281243Y-57466993D01*
X72073007Y-57258757D01*
X71828148Y-57095148D01*
X71556076Y-56982452D01*
X71267245Y-56925000D01*
X70972755Y-56925000D01*
X70683924Y-56982452D01*
X70411852Y-57095148D01*
X70166993Y-57258757D01*
X69958757Y-57466993D01*
X69850000Y-57629760D01*
X69741243Y-57466993D01*
X69533007Y-57258757D01*
X69288148Y-57095148D01*
X69016076Y-56982452D01*
X68727245Y-56925000D01*
X68432755Y-56925000D01*
X68143924Y-56982452D01*
X67871852Y-57095148D01*
X67626993Y-57258757D01*
X67418757Y-57466993D01*
X67310000Y-57629760D01*
X67201243Y-57466993D01*
X66993007Y-57258757D01*
X66748148Y-57095148D01*
X66476076Y-56982452D01*
X66187245Y-56925000D01*
X65892755Y-56925000D01*
X65603924Y-56982452D01*
X65331852Y-57095148D01*
X65086993Y-57258757D01*
X64878757Y-57466993D01*
X64715148Y-57711852D01*
X64602452Y-57983924D01*
X64545000Y-58272755D01*
X49648518Y-58272755D01*
X49643703Y-58195781D01*
X49573372Y-57930143D01*
X49452570Y-57683329D01*
X49396971Y-57600122D01*
X49176050Y-57511021D01*
X48267071Y-58420000D01*
X48252929Y-58420000D01*
X47343950Y-57511021D01*
X47123029Y-57600122D01*
X46984925Y-57837688D01*
X46895821Y-58097631D01*
X46859142Y-58369964D01*
X36205000Y-58369964D01*
X36205000Y-54930000D01*
X46762363Y-54930000D01*
X46762363Y-56830000D01*
X46772886Y-56936839D01*
X46804049Y-57039572D01*
X46854656Y-57134251D01*
X46922762Y-57217238D01*
X47005749Y-57285344D01*
X47100428Y-57335951D01*
X47203161Y-57367114D01*
X47310000Y-57377637D01*
X47401965Y-57377637D01*
X47351021Y-57503950D01*
X48260000Y-58412929D01*
X49168979Y-57503950D01*
X49118035Y-57377637D01*
X49210000Y-57377637D01*
X49316839Y-57367114D01*
X49419572Y-57335951D01*
X49514251Y-57285344D01*
X49597238Y-57217238D01*
X49665344Y-57134251D01*
X49715951Y-57039572D01*
X49747114Y-56936839D01*
X49757637Y-56830000D01*
X49757637Y-54930000D01*
X49747114Y-54823161D01*
X49715951Y-54720428D01*
X49665344Y-54625749D01*
X49597238Y-54542762D01*
X49514251Y-54474656D01*
X49419572Y-54424049D01*
X49316839Y-54392886D01*
X49210000Y-54382363D01*
X47310000Y-54382363D01*
X47203161Y-54392886D01*
X47100428Y-54424049D01*
X47005749Y-54474656D01*
X46922762Y-54542762D01*
X46854656Y-54625749D01*
X46804049Y-54720428D01*
X46772886Y-54823161D01*
X46762363Y-54930000D01*
X36205000Y-54930000D01*
X36205000Y-35880001D01*
X44222363Y-35880001D01*
X44222363Y-37780001D01*
X44232886Y-37886840D01*
X44264049Y-37989573D01*
X44314656Y-38084252D01*
X44382762Y-38167239D01*
X44465749Y-38235345D01*
X44560428Y-38285952D01*
X44663161Y-38317115D01*
X44770000Y-38327638D01*
X46670000Y-38327638D01*
X46776839Y-38317115D01*
X46879572Y-38285952D01*
X46974251Y-38235345D01*
X47057238Y-38167239D01*
X47125344Y-38084252D01*
X47175951Y-37989573D01*
X47207114Y-37886840D01*
X47217637Y-37780001D01*
X47217637Y-35880001D01*
X47207114Y-35773162D01*
X47175951Y-35670429D01*
X47125344Y-35575750D01*
X47057238Y-35492763D01*
X46974251Y-35424657D01*
X46879572Y-35374050D01*
X46776839Y-35342887D01*
X46670000Y-35332364D01*
X46578035Y-35332364D01*
X46628979Y-35206051D01*
X45720000Y-34297072D01*
X44811021Y-35206051D01*
X44861965Y-35332364D01*
X44770000Y-35332364D01*
X44663161Y-35342887D01*
X44560428Y-35374050D01*
X44465749Y-35424657D01*
X44382762Y-35492763D01*
X44314656Y-35575750D01*
X44264049Y-35670429D01*
X44232886Y-35773162D01*
X44222363Y-35880001D01*
X36205000Y-35880001D01*
X36205000Y-34239965D01*
X44319142Y-34239965D01*
X44336297Y-34514220D01*
X44406628Y-34779858D01*
X44527430Y-35026672D01*
X44583029Y-35109879D01*
X44803950Y-35198980D01*
X45712929Y-34290001D01*
X45727071Y-34290001D01*
X46636050Y-35198980D01*
X46856971Y-35109879D01*
X46995075Y-34872313D01*
X47084179Y-34612370D01*
X47120858Y-34340037D01*
X47103703Y-34065782D01*
X47033372Y-33800144D01*
X46912570Y-33553330D01*
X46856971Y-33470123D01*
X46636050Y-33381022D01*
X45727071Y-34290001D01*
X45712929Y-34290001D01*
X44803950Y-33381022D01*
X44583029Y-33470123D01*
X44444925Y-33707689D01*
X44355821Y-33967632D01*
X44319142Y-34239965D01*
X36205000Y-34239965D01*
X36205000Y-33373951D01*
X44811021Y-33373951D01*
X45720000Y-34282930D01*
X46628979Y-33373951D01*
X46539878Y-33153030D01*
X46302312Y-33014926D01*
X46042369Y-32925822D01*
X45770036Y-32889143D01*
X45495781Y-32906298D01*
X45230143Y-32976629D01*
X44983329Y-33097431D01*
X44900122Y-33153030D01*
X44811021Y-33373951D01*
X36205000Y-33373951D01*
X36205000Y-29530000D01*
X46762363Y-29530000D01*
X46762363Y-31430000D01*
X46772886Y-31536839D01*
X46804049Y-31639572D01*
X46854656Y-31734251D01*
X46922762Y-31817238D01*
X47005749Y-31885344D01*
X47100428Y-31935951D01*
X47203161Y-31967114D01*
X47310000Y-31977637D01*
X49210000Y-31977637D01*
X49316839Y-31967114D01*
X49419572Y-31935951D01*
X49514251Y-31885344D01*
X49597238Y-31817238D01*
X49665344Y-31734251D01*
X49715951Y-31639572D01*
X49746061Y-31540311D01*
X49846993Y-31641243D01*
X50091852Y-31804852D01*
X50363924Y-31917548D01*
X50652755Y-31975000D01*
X50947245Y-31975000D01*
X51236076Y-31917548D01*
X51508148Y-31804852D01*
X51753007Y-31641243D01*
X51961243Y-31433007D01*
X52070000Y-31270240D01*
X52178757Y-31433007D01*
X52386993Y-31641243D01*
X52631852Y-31804852D01*
X52903924Y-31917548D01*
X53192755Y-31975000D01*
X53487245Y-31975000D01*
X53776076Y-31917548D01*
X54048148Y-31804852D01*
X54293007Y-31641243D01*
X54501243Y-31433007D01*
X54610000Y-31270240D01*
X54718757Y-31433007D01*
X54926993Y-31641243D01*
X55171852Y-31804852D01*
X55443924Y-31917548D01*
X55732755Y-31975000D01*
X56027245Y-31975000D01*
X56316076Y-31917548D01*
X56588148Y-31804852D01*
X56833007Y-31641243D01*
X57041243Y-31433007D01*
X57150000Y-31270240D01*
X57258757Y-31433007D01*
X57466993Y-31641243D01*
X57666543Y-31774578D01*
X54904699Y-34536423D01*
X54878184Y-34558183D01*
X54791334Y-34664011D01*
X54756839Y-34728547D01*
X54726798Y-34784749D01*
X54687057Y-34915757D01*
X54673638Y-35052000D01*
X54677001Y-35086144D01*
X54677000Y-36188569D01*
X54637971Y-36227598D01*
X54534552Y-36382375D01*
X54463316Y-36554354D01*
X54427000Y-36736926D01*
X54427000Y-36923074D01*
X54463316Y-37105646D01*
X54534552Y-37277625D01*
X54637971Y-37432402D01*
X54769598Y-37564029D01*
X54924375Y-37667448D01*
X55096354Y-37738684D01*
X55278926Y-37775000D01*
X55465074Y-37775000D01*
X55647646Y-37738684D01*
X55819625Y-37667448D01*
X55974402Y-37564029D01*
X56106029Y-37432402D01*
X56209448Y-37277625D01*
X56280684Y-37105646D01*
X56317000Y-36923074D01*
X56317000Y-36736926D01*
X56280684Y-36554354D01*
X56209448Y-36382375D01*
X56106029Y-36227598D01*
X56067000Y-36188569D01*
X56067000Y-35339878D01*
X58887306Y-32519573D01*
X58913816Y-32497817D01*
X59000667Y-32391989D01*
X59065202Y-32271252D01*
X59104943Y-32140244D01*
X59115000Y-32038135D01*
X59115000Y-32038134D01*
X59118362Y-32004000D01*
X59115000Y-31969866D01*
X59115000Y-31810298D01*
X59128148Y-31804852D01*
X59373007Y-31641243D01*
X59581243Y-31433007D01*
X59690000Y-31270240D01*
X59798757Y-31433007D01*
X60006993Y-31641243D01*
X60251852Y-31804852D01*
X60265001Y-31810298D01*
X60265000Y-36796121D01*
X56527122Y-40534000D01*
X54916431Y-40534000D01*
X54877402Y-40494971D01*
X54722625Y-40391552D01*
X54550646Y-40320316D01*
X54368074Y-40284000D01*
X54181926Y-40284000D01*
X53999354Y-40320316D01*
X53827375Y-40391552D01*
X53672598Y-40494971D01*
X53540971Y-40626598D01*
X53437552Y-40781375D01*
X53366316Y-40953354D01*
X53330000Y-41135926D01*
X53330000Y-41322074D01*
X53366316Y-41504646D01*
X53437552Y-41676625D01*
X53540971Y-41831402D01*
X53672598Y-41963029D01*
X53827375Y-42066448D01*
X53999354Y-42137684D01*
X54181926Y-42174000D01*
X54368074Y-42174000D01*
X54550646Y-42137684D01*
X54722625Y-42066448D01*
X54877402Y-41963029D01*
X54916431Y-41924000D01*
X56780866Y-41924000D01*
X56815000Y-41927362D01*
X56849134Y-41924000D01*
X56849135Y-41924000D01*
X56951244Y-41913943D01*
X57082252Y-41874202D01*
X57202989Y-41809667D01*
X57308817Y-41722817D01*
X57330582Y-41696296D01*
X61427306Y-37599573D01*
X61453816Y-37577817D01*
X61540667Y-37471989D01*
X61605202Y-37351252D01*
X61644943Y-37220244D01*
X61655000Y-37118135D01*
X61655000Y-37118134D01*
X61658362Y-37084001D01*
X61655000Y-37049865D01*
X61655000Y-31810298D01*
X61668148Y-31804852D01*
X61913007Y-31641243D01*
X62121243Y-31433007D01*
X62230000Y-31270240D01*
X62338757Y-31433007D01*
X62546993Y-31641243D01*
X62791852Y-31804852D01*
X63063924Y-31917548D01*
X63352755Y-31975000D01*
X63647245Y-31975000D01*
X63936076Y-31917548D01*
X64208148Y-31804852D01*
X64453007Y-31641243D01*
X64661243Y-31433007D01*
X64770000Y-31270240D01*
X64878757Y-31433007D01*
X65086993Y-31641243D01*
X65331852Y-31804852D01*
X65603924Y-31917548D01*
X65892755Y-31975000D01*
X66187245Y-31975000D01*
X66476076Y-31917548D01*
X66748148Y-31804852D01*
X66993007Y-31641243D01*
X67201243Y-31433007D01*
X67310000Y-31270240D01*
X67418757Y-31433007D01*
X67626993Y-31641243D01*
X67871852Y-31804852D01*
X68143924Y-31917548D01*
X68432755Y-31975000D01*
X68727245Y-31975000D01*
X69016076Y-31917548D01*
X69288148Y-31804852D01*
X69533007Y-31641243D01*
X69741243Y-31433007D01*
X69850000Y-31270240D01*
X69958757Y-31433007D01*
X70166993Y-31641243D01*
X70411852Y-31804852D01*
X70683924Y-31917548D01*
X70972755Y-31975000D01*
X71267245Y-31975000D01*
X71556076Y-31917548D01*
X71828148Y-31804852D01*
X72073007Y-31641243D01*
X72281243Y-31433007D01*
X72390000Y-31270240D01*
X72498757Y-31433007D01*
X72706993Y-31641243D01*
X72951852Y-31804852D01*
X73223924Y-31917548D01*
X73512755Y-31975000D01*
X73807245Y-31975000D01*
X74096076Y-31917548D01*
X74368148Y-31804852D01*
X74613007Y-31641243D01*
X74821243Y-31433007D01*
X74930000Y-31270240D01*
X75038757Y-31433007D01*
X75246993Y-31641243D01*
X75491852Y-31804852D01*
X75505001Y-31810298D01*
X75505000Y-34509865D01*
X75501638Y-34544000D01*
X75508372Y-34612370D01*
X75515057Y-34680243D01*
X75554798Y-34811251D01*
X75619333Y-34931988D01*
X75706183Y-35037816D01*
X75732700Y-35059578D01*
X78045001Y-37371879D01*
X78045000Y-41849702D01*
X78031852Y-41855148D01*
X77786993Y-42018757D01*
X77578757Y-42226993D01*
X77470000Y-42389760D01*
X77361243Y-42226993D01*
X77153007Y-42018757D01*
X76908148Y-41855148D01*
X76636076Y-41742452D01*
X76347245Y-41685000D01*
X76052755Y-41685000D01*
X75763924Y-41742452D01*
X75491852Y-41855148D01*
X75246993Y-42018757D01*
X75038757Y-42226993D01*
X74930000Y-42389760D01*
X74821243Y-42226993D01*
X74613007Y-42018757D01*
X74368148Y-41855148D01*
X74096076Y-41742452D01*
X73807245Y-41685000D01*
X73512755Y-41685000D01*
X73223924Y-41742452D01*
X72951852Y-41855148D01*
X72706993Y-42018757D01*
X72498757Y-42226993D01*
X72390000Y-42389760D01*
X72281243Y-42226993D01*
X72073007Y-42018757D01*
X71828148Y-41855148D01*
X71556076Y-41742452D01*
X71267245Y-41685000D01*
X70972755Y-41685000D01*
X70683924Y-41742452D01*
X70411852Y-41855148D01*
X70166993Y-42018757D01*
X69958757Y-42226993D01*
X69850000Y-42389760D01*
X69741243Y-42226993D01*
X69533007Y-42018757D01*
X69288148Y-41855148D01*
X69016076Y-41742452D01*
X68727245Y-41685000D01*
X68432755Y-41685000D01*
X68143924Y-41742452D01*
X67871852Y-41855148D01*
X67626993Y-42018757D01*
X67526061Y-42119689D01*
X67495951Y-42020428D01*
X67445344Y-41925749D01*
X67377238Y-41842762D01*
X67294251Y-41774656D01*
X67199572Y-41724049D01*
X67096839Y-41692886D01*
X66990000Y-41682363D01*
X65090000Y-41682363D01*
X64983161Y-41692886D01*
X64880428Y-41724049D01*
X64785749Y-41774656D01*
X64702762Y-41842762D01*
X64634656Y-41925749D01*
X64584049Y-42020428D01*
X64552886Y-42123161D01*
X64542363Y-42230000D01*
X64542363Y-44130000D01*
X64552886Y-44236839D01*
X64584049Y-44339572D01*
X64634656Y-44434251D01*
X64702762Y-44517238D01*
X64785749Y-44585344D01*
X64880428Y-44635951D01*
X64983161Y-44667114D01*
X65090000Y-44677637D01*
X66990000Y-44677637D01*
X67096839Y-44667114D01*
X67199572Y-44635951D01*
X67294251Y-44585344D01*
X67377238Y-44517238D01*
X67445344Y-44434251D01*
X67495951Y-44339572D01*
X67526061Y-44240311D01*
X67626993Y-44341243D01*
X67871852Y-44504852D01*
X68143924Y-44617548D01*
X68432755Y-44675000D01*
X68727245Y-44675000D01*
X69016076Y-44617548D01*
X69288148Y-44504852D01*
X69533007Y-44341243D01*
X69741243Y-44133007D01*
X69850000Y-43970240D01*
X69958757Y-44133007D01*
X70166993Y-44341243D01*
X70411852Y-44504852D01*
X70683924Y-44617548D01*
X70972755Y-44675000D01*
X71267245Y-44675000D01*
X71556076Y-44617548D01*
X71828148Y-44504852D01*
X72073007Y-44341243D01*
X72281243Y-44133007D01*
X72390000Y-43970240D01*
X72498757Y-44133007D01*
X72706993Y-44341243D01*
X72951852Y-44504852D01*
X73223924Y-44617548D01*
X73512755Y-44675000D01*
X73807245Y-44675000D01*
X74096076Y-44617548D01*
X74368148Y-44504852D01*
X74613007Y-44341243D01*
X74821243Y-44133007D01*
X74930000Y-43970240D01*
X75038757Y-44133007D01*
X75246993Y-44341243D01*
X75491852Y-44504852D01*
X75763924Y-44617548D01*
X76052755Y-44675000D01*
X76347245Y-44675000D01*
X76636076Y-44617548D01*
X76908148Y-44504852D01*
X77153007Y-44341243D01*
X77361243Y-44133007D01*
X77470000Y-43970240D01*
X77578757Y-44133007D01*
X77786993Y-44341243D01*
X78031852Y-44504852D01*
X78303924Y-44617548D01*
X78592755Y-44675000D01*
X78887245Y-44675000D01*
X79176076Y-44617548D01*
X79448148Y-44504852D01*
X79693007Y-44341243D01*
X79901243Y-44133007D01*
X80064852Y-43888148D01*
X80177548Y-43616076D01*
X80235000Y-43327245D01*
X80235000Y-43032755D01*
X80177548Y-42743924D01*
X80064852Y-42471852D01*
X79901243Y-42226993D01*
X79693007Y-42018757D01*
X79448148Y-41855148D01*
X79435000Y-41849702D01*
X79435000Y-37118131D01*
X79438362Y-37083999D01*
X79435000Y-37049865D01*
X79424943Y-36947756D01*
X79385202Y-36816748D01*
X79320667Y-36696011D01*
X79233817Y-36590183D01*
X79207296Y-36568418D01*
X76895000Y-34256122D01*
X76895000Y-31810298D01*
X76908148Y-31804852D01*
X77153007Y-31641243D01*
X77361243Y-31433007D01*
X77470000Y-31270240D01*
X77578757Y-31433007D01*
X77786993Y-31641243D01*
X78031852Y-31804852D01*
X78303924Y-31917548D01*
X78592755Y-31975000D01*
X78887245Y-31975000D01*
X79176076Y-31917548D01*
X79448148Y-31804852D01*
X79693007Y-31641243D01*
X79901243Y-31433007D01*
X80010000Y-31270240D01*
X80118757Y-31433007D01*
X80326993Y-31641243D01*
X80571852Y-31804852D01*
X80843924Y-31917548D01*
X81132755Y-31975000D01*
X81427245Y-31975000D01*
X81716076Y-31917548D01*
X81988148Y-31804852D01*
X82233007Y-31641243D01*
X82441243Y-31433007D01*
X82550000Y-31270240D01*
X82658757Y-31433007D01*
X82866993Y-31641243D01*
X83111852Y-31804852D01*
X83383924Y-31917548D01*
X83672755Y-31975000D01*
X83967245Y-31975000D01*
X84256076Y-31917548D01*
X84528148Y-31804852D01*
X84773007Y-31641243D01*
X84981243Y-31433007D01*
X85090000Y-31270240D01*
X85198757Y-31433007D01*
X85406993Y-31641243D01*
X85651852Y-31804852D01*
X85923924Y-31917548D01*
X86212755Y-31975000D01*
X86507245Y-31975000D01*
X86796076Y-31917548D01*
X87068148Y-31804852D01*
X87313007Y-31641243D01*
X87521243Y-31433007D01*
X87630000Y-31270240D01*
X87738757Y-31433007D01*
X87946993Y-31641243D01*
X88191852Y-31804852D01*
X88463924Y-31917548D01*
X88752755Y-31975000D01*
X89047245Y-31975000D01*
X89336076Y-31917548D01*
X89608148Y-31804852D01*
X89853007Y-31641243D01*
X90061243Y-31433007D01*
X90170000Y-31270240D01*
X90278757Y-31433007D01*
X90486993Y-31641243D01*
X90731852Y-31804852D01*
X91003924Y-31917548D01*
X91292755Y-31975000D01*
X91587245Y-31975000D01*
X91876076Y-31917548D01*
X92148148Y-31804852D01*
X92393007Y-31641243D01*
X92601243Y-31433007D01*
X92710000Y-31270240D01*
X92818757Y-31433007D01*
X93026993Y-31641243D01*
X93271852Y-31804852D01*
X93543924Y-31917548D01*
X93832755Y-31975000D01*
X94127245Y-31975000D01*
X94416076Y-31917548D01*
X94688148Y-31804852D01*
X94933007Y-31641243D01*
X95141243Y-31433007D01*
X95250000Y-31270240D01*
X95358757Y-31433007D01*
X95566993Y-31641243D01*
X95811852Y-31804852D01*
X96083924Y-31917548D01*
X96372755Y-31975000D01*
X96667245Y-31975000D01*
X96956076Y-31917548D01*
X97228148Y-31804852D01*
X97473007Y-31641243D01*
X97681243Y-31433007D01*
X97844852Y-31188148D01*
X97957548Y-30916076D01*
X98015000Y-30627245D01*
X98015000Y-30332755D01*
X97957548Y-30043924D01*
X97844852Y-29771852D01*
X97681243Y-29526993D01*
X97473007Y-29318757D01*
X97228148Y-29155148D01*
X96956076Y-29042452D01*
X96667245Y-28985000D01*
X96372755Y-28985000D01*
X96083924Y-29042452D01*
X95811852Y-29155148D01*
X95566993Y-29318757D01*
X95358757Y-29526993D01*
X95250000Y-29689760D01*
X95141243Y-29526993D01*
X94933007Y-29318757D01*
X94688148Y-29155148D01*
X94416076Y-29042452D01*
X94127245Y-28985000D01*
X93832755Y-28985000D01*
X93543924Y-29042452D01*
X93271852Y-29155148D01*
X93026993Y-29318757D01*
X92818757Y-29526993D01*
X92710000Y-29689760D01*
X92601243Y-29526993D01*
X92393007Y-29318757D01*
X92148148Y-29155148D01*
X91876076Y-29042452D01*
X91587245Y-28985000D01*
X91292755Y-28985000D01*
X91003924Y-29042452D01*
X90731852Y-29155148D01*
X90486993Y-29318757D01*
X90278757Y-29526993D01*
X90170000Y-29689760D01*
X90061243Y-29526993D01*
X89853007Y-29318757D01*
X89608148Y-29155148D01*
X89336076Y-29042452D01*
X89047245Y-28985000D01*
X88752755Y-28985000D01*
X88463924Y-29042452D01*
X88191852Y-29155148D01*
X87946993Y-29318757D01*
X87738757Y-29526993D01*
X87630000Y-29689760D01*
X87521243Y-29526993D01*
X87313007Y-29318757D01*
X87068148Y-29155148D01*
X86796076Y-29042452D01*
X86507245Y-28985000D01*
X86212755Y-28985000D01*
X85923924Y-29042452D01*
X85651852Y-29155148D01*
X85406993Y-29318757D01*
X85198757Y-29526993D01*
X85090000Y-29689760D01*
X84981243Y-29526993D01*
X84773007Y-29318757D01*
X84528148Y-29155148D01*
X84256076Y-29042452D01*
X83967245Y-28985000D01*
X83672755Y-28985000D01*
X83383924Y-29042452D01*
X83111852Y-29155148D01*
X82866993Y-29318757D01*
X82658757Y-29526993D01*
X82550000Y-29689760D01*
X82441243Y-29526993D01*
X82233007Y-29318757D01*
X81988148Y-29155148D01*
X81716076Y-29042452D01*
X81427245Y-28985000D01*
X81132755Y-28985000D01*
X80843924Y-29042452D01*
X80571852Y-29155148D01*
X80326993Y-29318757D01*
X80118757Y-29526993D01*
X80010000Y-29689760D01*
X79901243Y-29526993D01*
X79693007Y-29318757D01*
X79448148Y-29155148D01*
X79176076Y-29042452D01*
X78887245Y-28985000D01*
X78592755Y-28985000D01*
X78303924Y-29042452D01*
X78031852Y-29155148D01*
X77786993Y-29318757D01*
X77578757Y-29526993D01*
X77470000Y-29689760D01*
X77361243Y-29526993D01*
X77153007Y-29318757D01*
X76908148Y-29155148D01*
X76636076Y-29042452D01*
X76347245Y-28985000D01*
X76052755Y-28985000D01*
X75763924Y-29042452D01*
X75491852Y-29155148D01*
X75246993Y-29318757D01*
X75038757Y-29526993D01*
X74930000Y-29689760D01*
X74821243Y-29526993D01*
X74613007Y-29318757D01*
X74368148Y-29155148D01*
X74096076Y-29042452D01*
X73807245Y-28985000D01*
X73512755Y-28985000D01*
X73223924Y-29042452D01*
X72951852Y-29155148D01*
X72706993Y-29318757D01*
X72498757Y-29526993D01*
X72390000Y-29689760D01*
X72281243Y-29526993D01*
X72073007Y-29318757D01*
X71828148Y-29155148D01*
X71556076Y-29042452D01*
X71267245Y-28985000D01*
X70972755Y-28985000D01*
X70683924Y-29042452D01*
X70411852Y-29155148D01*
X70166993Y-29318757D01*
X69958757Y-29526993D01*
X69850000Y-29689760D01*
X69741243Y-29526993D01*
X69533007Y-29318757D01*
X69288148Y-29155148D01*
X69016076Y-29042452D01*
X68727245Y-28985000D01*
X68432755Y-28985000D01*
X68143924Y-29042452D01*
X67871852Y-29155148D01*
X67626993Y-29318757D01*
X67418757Y-29526993D01*
X67310000Y-29689760D01*
X67201243Y-29526993D01*
X66993007Y-29318757D01*
X66748148Y-29155148D01*
X66476076Y-29042452D01*
X66187245Y-28985000D01*
X65892755Y-28985000D01*
X65603924Y-29042452D01*
X65331852Y-29155148D01*
X65086993Y-29318757D01*
X64878757Y-29526993D01*
X64770000Y-29689760D01*
X64661243Y-29526993D01*
X64453007Y-29318757D01*
X64208148Y-29155148D01*
X63936076Y-29042452D01*
X63647245Y-28985000D01*
X63352755Y-28985000D01*
X63063924Y-29042452D01*
X62791852Y-29155148D01*
X62546993Y-29318757D01*
X62338757Y-29526993D01*
X62230000Y-29689760D01*
X62121243Y-29526993D01*
X61913007Y-29318757D01*
X61668148Y-29155148D01*
X61396076Y-29042452D01*
X61107245Y-28985000D01*
X60812755Y-28985000D01*
X60523924Y-29042452D01*
X60251852Y-29155148D01*
X60006993Y-29318757D01*
X59798757Y-29526993D01*
X59690000Y-29689760D01*
X59581243Y-29526993D01*
X59373007Y-29318757D01*
X59128148Y-29155148D01*
X58856076Y-29042452D01*
X58567245Y-28985000D01*
X58272755Y-28985000D01*
X57983924Y-29042452D01*
X57711852Y-29155148D01*
X57466993Y-29318757D01*
X57258757Y-29526993D01*
X57150000Y-29689760D01*
X57041243Y-29526993D01*
X56833007Y-29318757D01*
X56588148Y-29155148D01*
X56316076Y-29042452D01*
X56027245Y-28985000D01*
X55732755Y-28985000D01*
X55443924Y-29042452D01*
X55171852Y-29155148D01*
X54926993Y-29318757D01*
X54718757Y-29526993D01*
X54610000Y-29689760D01*
X54501243Y-29526993D01*
X54293007Y-29318757D01*
X54048148Y-29155148D01*
X53776076Y-29042452D01*
X53487245Y-28985000D01*
X53192755Y-28985000D01*
X52903924Y-29042452D01*
X52631852Y-29155148D01*
X52386993Y-29318757D01*
X52178757Y-29526993D01*
X52070000Y-29689760D01*
X51961243Y-29526993D01*
X51753007Y-29318757D01*
X51508148Y-29155148D01*
X51236076Y-29042452D01*
X50947245Y-28985000D01*
X50652755Y-28985000D01*
X50363924Y-29042452D01*
X50091852Y-29155148D01*
X49846993Y-29318757D01*
X49746061Y-29419689D01*
X49715951Y-29320428D01*
X49665344Y-29225749D01*
X49597238Y-29142762D01*
X49514251Y-29074656D01*
X49419572Y-29024049D01*
X49316839Y-28992886D01*
X49210000Y-28982363D01*
X47310000Y-28982363D01*
X47203161Y-28992886D01*
X47100428Y-29024049D01*
X47005749Y-29074656D01*
X46922762Y-29142762D01*
X46854656Y-29225749D01*
X46804049Y-29320428D01*
X46772886Y-29423161D01*
X46762363Y-29530000D01*
X36205000Y-29530000D01*
X36205000Y-28585000D01*
X98415000Y-28585000D01*
X98415001Y-75555000D01*
M02*
